<svg width="124" height="124" viewBox="0 0 124 124" fill="none" xmlns="http://www.w3.org/2000/svg">
<path d="M62 20.3334C39 20.3334 20.3333 39 20.3333 62C20.3333 85 39 103.667 62 103.667C85 103.667 103.667 85 103.667 62C103.667 39 85 20.3334 62 20.3334ZM62 32.8334C68.9166 32.8334 74.5 38.4167 74.5 45.3334C74.5 52.25 68.9166 57.8334 62 57.8334C55.0833 57.8334 49.5 52.25 49.5 45.3334C49.5 38.4167 55.0833 32.8334 62 32.8334ZM62 92C51.5833 92 42.375 86.6667 37 78.5834C37.125 70.2917 53.6666 65.75 62 65.75C70.2916 65.75 86.875 70.2917 87 78.5834C81.625 86.6667 72.4166 92 62 92Z" fill="#6C63FF"/>
<circle cx="62" cy="62" r="62" fill="#6C63FF" fill-opacity="0.31"/>
</svg>
