<svg width="124" height="124" viewBox="0 0 124 124" fill="none" xmlns="http://www.w3.org/2000/svg">
<circle cx="62" cy="62" r="62" fill="#18540f" fill-opacity="0.31"/>
<path d="M76.5833 70.3333H73.2917L72.125 69.2083C76.2083 64.4583 78.6667 58.2917 78.6667 51.5833C78.6667 36.625 66.5417 24.5 51.5833 24.5C36.625 24.5 24.5 36.625 24.5 51.5833C24.5 66.5417 36.625 78.6667 51.5833 78.6667C58.2917 78.6667 64.4583 76.2083 69.2083 72.125L70.3333 73.2917V76.5833L91.1667 97.375L97.375 91.1667L76.5833 70.3333ZM51.5833 70.3333C41.2083 70.3333 32.8333 61.9583 32.8333 51.5833C32.8333 41.2083 41.2083 32.8333 51.5833 32.8333C61.9583 32.8333 70.3333 41.2083 70.3333 51.5833C70.3333 61.9583 61.9583 70.3333 51.5833 70.3333Z" fill="#18540f"/>
</svg>
