<svg width="290" height="290" viewBox="0 0 290 290" fill="none" xmlns="http://www.w3.org/2000/svg">
<circle cx="145" cy="145" r="145" fill="#6C63FF" fill-opacity="0.42"/>
<g clip-path="url(#clip0)">
<path d="M57 65V96.9844C57.4063 96.5 57.8125 96.0938 58.2188 95.7656C64.4375 89.1563 73.2188 85 83 85C101.781 85 117 100.219 117 119C117 129.547 112.188 138.984 104.641 145.219C108.859 145.609 113 146.5 116.797 147.875L117.016 147.953L117.25 148.062L126.453 152.062L138.797 137C141.766 132.734 146.469 129.812 151.5 129.109C152.594 128.891 153.719 128.797 154.828 128.797C160.281 128.797 165.578 131.266 169.422 135.562C175.359 141.734 176.047 152.625 170.922 159.984C168.156 163.922 164.391 168.656 160.406 173.656C156.094 179.062 151.641 184.656 148.625 189.109L148.484 189.312L148.313 189.5C144.875 193.953 139.938 196.578 134.656 196.922C134.641 196.953 134.625 196.969 134.609 197H165.813C165.281 199.594 165 202.266 165 205H121.188V225H170.422C177.344 236.938 190.25 245 205 245C227.047 245 245 227.047 245 205C245 193.859 240.391 183.766 233 176.5V69C232.609 66.5938 231 65 228.609 65L57 65ZM125 89H173V97H125V89ZM185 89H213V97H185V89ZM83 93C68.6406 93 57 104.641 57 119C57 133.359 68.6406 145 83 145C97.3594 145 109 133.359 109 119C109 104.641 97.3594 93 83 93ZM125 109H213V117H125V109ZM154.266 136.813C153.781 136.844 153.266 136.906 152.766 137C149.578 137.406 146.797 139.391 145.188 141.797L128.828 161.797L114.063 155.391C109.672 153.797 104.875 153 100.094 153H70.9531C58.9844 153 49 163 49 175V225H112.859V180.609L130.813 188.609C134.813 189.797 139.203 188.203 142 184.609C147.984 175.797 158.766 163.391 164.359 155.391C167.141 151.391 167.141 144.594 163.563 141C161.109 138.203 157.75 136.625 154.266 136.812V136.813ZM205 173C222.719 173 237 187.281 237 205C237 222.719 222.719 237 205 237C187.281 237 173 222.719 173 205C173 187.281 187.281 173 205 173ZM203.797 178.609V184.609C200.203 184.609 192.609 187.391 192.609 195.797C192.609 209.797 210.609 206.203 210.609 215C210.609 215.797 210.594 219.797 205.391 219.797C199.391 219.797 199.391 214.203 199.391 213H191.391C191.391 225 201.797 226.203 203.391 226.203V231.797H207.797V226.203C209.391 226.203 219 225 219 215C219 201 201 204.203 201 195.797C201 195 201 191 205.391 190.609C210.203 190.609 210.609 195 210.609 197.391H218.609C218.609 187 211 185 208.203 184.609V178.609H203.797Z" fill="#372FAF"/>
</g>
<defs>
<clipPath id="clip0">
<rect width="200" height="200" fill="white" transform="translate(45 45)"/>
</clipPath>
</defs>
</svg>
