<svg width="290" height="290" viewBox="0 0 290 290" fill="none" xmlns="http://www.w3.org/2000/svg">
<circle cx="145" cy="145" r="145" fill="#18540f" fill-opacity="0.42"/>
<path d="M202.384 101.659C202.384 101.659 198.134 98.4326 198.134 91.0322C198.134 83.5935 202.384 80.4055 202.384 80.4055H98.2425C92.3744 80.4055 87.6158 85.1641 87.6158 91.0322C87.6158 96.9003 92.3744 101.659 98.2425 101.659H202.384Z" fill="#FEFDEF"/>
<path d="M189.632 233.43H98.2425C92.3744 233.43 87.6158 228.672 87.6158 222.803V91.0322C87.6158 96.9003 92.3744 101.659 98.2425 101.659H202.384V220.678C202.384 227.721 196.676 233.43 189.632 233.43Z" fill="#A3A3CD"/>
<path d="M104.618 101.659H98.2425C92.3744 101.659 87.6158 96.9003 87.6158 91.0322V222.803C87.6158 228.672 92.3744 233.43 98.2425 233.43H104.618V101.659Z" fill="#666AAD"/>
<path d="M165.191 234.493V247.245L171.567 242.994L177.943 247.245V234.493H165.191Z" fill="#FCBA7F"/>
<path d="M202.384 103.784H98.2425C91.2097 103.784 85.4904 98.065 85.4904 91.0322C85.4904 83.9994 91.2097 78.2802 98.2425 78.2802H202.384C203.3 78.2802 204.112 78.8646 204.401 79.7339C204.69 80.6032 204.391 81.5574 203.659 82.1058C203.538 82.2014 200.259 84.8517 200.259 91.0322C200.259 97.1872 203.547 99.8673 203.687 99.9799C204.395 100.543 204.68 101.497 204.382 102.352C204.085 103.206 203.288 103.784 202.384 103.784ZM98.2425 82.5308C93.554 82.5308 89.7411 86.3437 89.7411 91.0322C89.7411 95.7207 93.554 99.5336 98.2425 99.5336H198.049C196.965 97.54 196.008 94.7324 196.008 91.0322C196.008 87.3256 196.96 84.5223 198.042 82.5308H98.2425Z" fill="#1F212B"/>
<path d="M189.632 235.555H98.2425C91.2097 235.555 85.4904 229.836 85.4904 222.803V91.0322C85.4904 89.8569 86.4426 88.9069 87.6157 88.9069C88.7889 88.9069 89.7411 89.8569 89.7411 91.0322C89.7411 95.7207 93.554 99.5336 98.2425 99.5336H202.384C203.557 99.5336 204.51 100.484 204.51 101.659V220.678C204.51 228.88 197.836 235.555 189.632 235.555ZM89.7411 100.53V222.803C89.7411 227.492 93.554 231.305 98.2425 231.305H189.632C195.492 231.305 200.259 226.538 200.259 220.678V103.784H98.2425C94.9801 103.784 92.0003 102.552 89.7411 100.53Z" fill="#1F212B"/>
<path d="M189.632 235.555H98.2425C91.2097 235.555 85.4904 229.836 85.4904 222.803V91.0322C85.4904 89.8569 86.4426 88.9069 87.6157 88.9069C88.7889 88.9069 89.7411 89.8569 89.7411 91.0322C89.7411 95.7207 93.554 99.5336 98.2425 99.5336H202.384C203.557 99.5336 204.51 100.484 204.51 101.659V220.678C204.51 228.88 197.836 235.555 189.632 235.555ZM89.7411 100.53V222.803C89.7411 227.492 93.554 231.305 98.2425 231.305H189.632C195.492 231.305 200.259 226.538 200.259 220.678V103.784H98.2425C94.9801 103.784 92.0003 102.552 89.7411 100.53Z" fill="#1F212B"/>
<path d="M103.556 207.926C102.969 207.926 102.493 207.45 102.493 206.863V102.722C102.493 102.135 102.969 101.659 103.556 101.659C104.142 101.659 104.618 102.135 104.618 102.722V206.863C104.618 207.45 104.142 207.926 103.556 207.926Z" fill="#1F212B"/>
<path d="M103.556 224.929C102.969 224.929 102.493 224.453 102.493 223.866V213.239C102.493 212.653 102.969 212.177 103.556 212.177C104.142 212.177 104.618 212.653 104.618 213.239V223.866C104.618 224.453 104.142 224.929 103.556 224.929Z" fill="#1F212B"/>
<path d="M197.071 88.9069H99.3051C98.7185 88.9069 98.2425 88.4308 98.2425 87.8442C98.2425 87.2576 98.7185 86.7815 99.3051 86.7815H197.071C197.657 86.7815 198.134 87.2576 198.134 87.8442C198.134 88.4308 197.657 88.9069 197.071 88.9069Z" fill="#1F212B"/>
<path d="M197.071 95.2829H112.057C111.471 95.2829 110.995 94.8068 110.995 94.2202C110.995 93.6336 111.471 93.1575 112.057 93.1575H197.071C197.657 93.1575 198.134 93.6336 198.134 94.2202C198.134 94.8068 197.657 95.2829 197.071 95.2829Z" fill="#1F212B"/>
<path d="M177.943 248.308C177.737 248.308 177.53 248.248 177.354 248.129L171.567 244.272L165.779 248.129C165.454 248.348 165.033 248.367 164.689 248.18C164.345 247.997 164.128 247.638 164.128 247.245V234.493C164.128 233.906 164.604 233.43 165.191 233.43C165.777 233.43 166.253 233.906 166.253 234.493V245.258L170.978 242.11C171.335 241.874 171.801 241.874 172.158 242.11L176.88 245.258V234.493C176.88 233.906 177.356 233.43 177.943 233.43C178.529 233.43 179.005 233.906 179.005 234.493V247.245C179.005 247.638 178.789 247.997 178.444 248.18C178.287 248.265 178.115 248.308 177.943 248.308Z" fill="#1F212B"/>
<path d="M131.629 171H128.17L119.297 156.877V171H115.838V151.094H119.297L128.197 165.271V151.094H131.629V171ZM136.173 163.467C136.173 162.018 136.46 160.714 137.034 159.557C137.609 158.39 138.415 157.497 139.454 156.877C140.493 156.248 141.687 155.934 143.036 155.934C145.032 155.934 146.65 156.576 147.89 157.861C149.139 159.146 149.813 160.851 149.913 162.975L149.927 163.754C149.927 165.212 149.644 166.516 149.079 167.664C148.523 168.812 147.721 169.701 146.673 170.33C145.634 170.959 144.431 171.273 143.064 171.273C140.977 171.273 139.304 170.581 138.046 169.195C136.797 167.801 136.173 165.946 136.173 163.631V163.467ZM139.495 163.754C139.495 165.276 139.81 166.47 140.439 167.336C141.068 168.193 141.943 168.621 143.064 168.621C144.185 168.621 145.055 168.184 145.675 167.309C146.304 166.434 146.618 165.153 146.618 163.467C146.618 161.972 146.295 160.787 145.648 159.912C145.01 159.037 144.139 158.6 143.036 158.6C141.952 158.6 141.09 159.033 140.452 159.898C139.814 160.755 139.495 162.04 139.495 163.754ZM158.3 152.611V156.207H160.911V158.668H158.3V166.926C158.3 167.491 158.409 167.901 158.628 168.156C158.856 168.402 159.257 168.525 159.831 168.525C160.214 168.525 160.601 168.48 160.993 168.389V170.959C160.237 171.169 159.507 171.273 158.806 171.273C156.253 171.273 154.977 169.865 154.977 167.049V158.668H152.544V156.207H154.977V152.611H158.3ZM171.375 171.273C169.27 171.273 167.561 170.613 166.249 169.291C164.945 167.96 164.293 166.192 164.293 163.986V163.576C164.293 162.1 164.576 160.783 165.141 159.625C165.715 158.458 166.517 157.551 167.547 156.904C168.577 156.257 169.726 155.934 170.993 155.934C173.007 155.934 174.561 156.576 175.655 157.861C176.758 159.146 177.309 160.965 177.309 163.316V164.656H167.643C167.743 165.878 168.149 166.844 168.86 167.555C169.58 168.266 170.482 168.621 171.567 168.621C173.089 168.621 174.329 168.006 175.286 166.775L177.077 168.484C176.484 169.368 175.691 170.057 174.698 170.549C173.713 171.032 172.606 171.273 171.375 171.273ZM170.979 158.6C170.068 158.6 169.329 158.919 168.764 159.557C168.208 160.195 167.853 161.083 167.698 162.223H174.028V161.977C173.955 160.865 173.659 160.026 173.139 159.461C172.62 158.887 171.9 158.6 170.979 158.6ZM189.592 166.98C189.592 166.388 189.346 165.937 188.854 165.627C188.371 165.317 187.564 165.044 186.434 164.807C185.303 164.57 184.36 164.269 183.604 163.904C181.945 163.102 181.115 161.94 181.115 160.418C181.115 159.142 181.653 158.076 182.729 157.219C183.804 156.362 185.171 155.934 186.83 155.934C188.598 155.934 190.025 156.371 191.109 157.246C192.203 158.121 192.75 159.256 192.75 160.65H189.428C189.428 160.012 189.191 159.484 188.717 159.064C188.243 158.636 187.614 158.422 186.83 158.422C186.101 158.422 185.504 158.59 185.039 158.928C184.583 159.265 184.356 159.716 184.356 160.281C184.356 160.792 184.57 161.188 184.998 161.471C185.427 161.753 186.292 162.04 187.596 162.332C188.899 162.615 189.92 162.956 190.658 163.357C191.406 163.749 191.957 164.223 192.313 164.779C192.677 165.335 192.859 166.01 192.859 166.803C192.859 168.133 192.308 169.214 191.205 170.043C190.102 170.863 188.658 171.273 186.871 171.273C185.659 171.273 184.579 171.055 183.631 170.617C182.683 170.18 181.945 169.578 181.416 168.812C180.887 168.047 180.623 167.222 180.623 166.338H183.85C183.895 167.122 184.191 167.728 184.738 168.156C185.285 168.576 186.01 168.785 186.912 168.785C187.787 168.785 188.453 168.621 188.908 168.293C189.364 167.956 189.592 167.518 189.592 166.98Z" fill="black"/>
</svg>
