<svg width="112" height="100" viewBox="0 0 112 100" fill="none" xmlns="http://www.w3.org/2000/svg">
<rect width="111.702" height="100" rx="15" fill="#6C63FF" fill-opacity="0.75"/>
<rect x="17.2872" y="22.3404" width="27.1277" height="11.1702" fill="white"/>
<rect x="17.2872" y="44.4149" width="27.1277" height="11.1702" fill="white"/>
<rect x="17.2872" y="66.4894" width="27.1277" height="11.1702" fill="white"/>
<path d="M80.0532 37.2008C71.5204 37.2008 64.2334 42.5082 61.281 50C64.2334 57.4918 71.5204 62.7992 80.0532 62.7992C88.586 62.7992 95.873 57.4918 98.8253 50C95.873 42.5082 88.586 37.2008 80.0532 37.2008ZM80.0532 58.5328C75.3431 58.5328 71.5204 54.7101 71.5204 50C71.5204 45.2899 75.3431 41.4672 80.0532 41.4672C84.7633 41.4672 88.586 45.2899 88.586 50C88.586 54.7101 84.7633 58.5328 80.0532 58.5328ZM80.0532 44.8803C77.2203 44.8803 74.9335 47.1671 74.9335 50C74.9335 52.8329 77.2203 55.1197 80.0532 55.1197C82.8861 55.1197 85.1728 52.8329 85.1728 50C85.1728 47.1671 82.8861 44.8803 80.0532 44.8803Z" fill="white"/>
</svg>
