<svg width="124" height="124" viewBox="0 0 124 124" fill="none" xmlns="http://www.w3.org/2000/svg">
<circle cx="62" cy="62" r="62" fill="#18540f" fill-opacity="0.31"/>
<g clip-path="url(#clip0)">
<path d="M93.3125 26H30.8125C26.4984 26 23 29.4984 23 33.8125V80.6875V99.9844C23 102.272 24.8531 104.125 27.1406 104.125H27.1516C28.4703 104.125 29.7109 103.497 30.4906 102.433L38.3672 91.6922C39.8391 89.6859 42.1781 88.5 44.6672 88.5H93.3125C97.6266 88.5 101.125 85.0016 101.125 80.6875V33.8125C101.125 29.4984 97.6266 26 93.3125 26Z" fill="#18540f"/>
<path d="M67.6367 64.1406H57.3633L55.4102 70H49.1797L59.7656 41.5625H65.1953L75.8398 70H69.6094L67.6367 64.1406ZM58.9453 59.3945H66.0547L62.4805 48.75L58.9453 59.3945Z" fill="white"/>
</g>
<defs>
<clipPath id="clip0">
<rect width="100" height="100" fill="white" transform="translate(12 12)"/>
</clipPath>
</defs>
</svg>
