<svg width="124" height="124" viewBox="0 0 124 124" fill="none" xmlns="http://www.w3.org/2000/svg">
<circle cx="62" cy="62" r="62" fill="#6C63FF" fill-opacity="0.31"/>
<g clip-path="url(#clip0)">
<path d="M93.25 26.0625H30.75C26.4359 26.0625 22.9375 29.5609 22.9375 33.875V80.75V100.047C22.9375 102.334 24.7906 104.188 27.0781 104.188H27.0891C28.4078 104.188 29.6484 103.559 30.4281 102.495L38.3047 91.7547C39.7766 89.7484 42.1156 88.5625 44.6047 88.5625H93.25C97.5641 88.5625 101.062 85.0641 101.062 80.75V33.875C101.062 29.5609 97.5641 26.0625 93.25 26.0625Z" fill="#6C63FF"/>
<path d="M62 71.375C61.1712 71.375 60.3763 71.7042 59.7903 72.2903C59.2042 72.8763 58.875 73.6712 58.875 74.5C58.875 75.3288 59.2042 76.1237 59.7903 76.7097C60.3763 77.2958 61.1712 77.625 62 77.625C62.8288 77.625 63.6237 77.2958 64.2097 76.7097C64.7958 76.1237 65.125 75.3288 65.125 74.5C65.125 73.6712 64.7958 72.8763 64.2097 72.2903C63.6237 71.7042 62.8288 71.375 62 71.375ZM62 66.6875C60.275 66.6875 58.875 65.2875 58.875 63.5625C58.875 59.2141 61.5453 56.825 63.4969 55.0797C65.5938 53.2047 66.6875 52.1047 66.6875 49.5C66.6875 46.5203 64.9797 44.8125 62 44.8125C59.0203 44.8125 57.3125 46.5203 57.3125 49.5C57.3125 51.225 55.9125 52.625 54.1875 52.625C52.4625 52.625 51.0625 51.225 51.0625 49.5C51.0625 43.0594 55.5594 38.5625 62 38.5625C68.4406 38.5625 72.9375 43.0594 72.9375 49.5C72.9375 55.0219 69.8891 57.7484 67.6641 59.7391C65.7828 61.4203 65.125 62.1359 65.125 63.5625C65.125 65.2875 63.725 66.6875 62 66.6875Z" fill="white"/>
</g>
<defs>
<clipPath id="clip0">
<rect width="100" height="100" fill="white" transform="translate(12 12)"/>
</clipPath>
</defs>
</svg>
