<svg width="290" height="290" viewBox="0 0 290 290" fill="none" xmlns="http://www.w3.org/2000/svg">
<circle cx="145" cy="145" r="145" fill="#18540f" fill-opacity="0.42"/>
<g clip-path="url(#clip0)">
<path d="M182.5 226.25H95C89.8219 226.25 85.625 222.053 85.625 216.875V91.875C85.625 86.6969 89.8219 82.5 95 82.5H141.116C143.603 82.5 145.987 83.4875 147.744 85.2469L189.128 126.631C190.887 128.388 191.875 130.772 191.875 133.259V216.875C191.875 222.053 187.678 226.25 182.5 226.25Z" fill="#372FAF"/>
<path d="M201.25 207.5H113.75C108.572 207.5 104.375 203.303 104.375 198.125V73.125C104.375 67.9469 108.572 63.75 113.75 63.75H170L210.625 104.375V198.125C210.625 203.303 206.428 207.5 201.25 207.5Z" fill="#18540f"/>
<path d="M201.25 207.5H113.75C108.572 207.5 104.375 203.303 104.375 198.125V73.125C104.375 67.9469 108.572 63.75 113.75 63.75H166.116C168.603 63.75 170.987 64.7375 172.744 66.4969L207.878 101.631C209.637 103.388 210.625 105.772 210.625 108.259V198.125C210.625 203.303 206.428 207.5 201.25 207.5Z" fill="#5A53DA"/>
<path d="M207.878 101.628L172.747 66.4971C171.947 65.6971 171.009 65.0846 170 64.6221V95.0002C170 100.178 174.197 104.375 179.375 104.375H209.753C209.294 103.366 208.678 102.428 207.878 101.628Z" fill="#18540f"/>
<path d="M210.625 108.259C210.625 106.903 210.306 105.587 209.753 104.375H179.375C174.197 104.375 170 100.178 170 95V104.375C170 109.553 174.197 113.75 179.375 113.75H210.625V108.259Z" fill="#18540f" fill-opacity="0.74"/>
<path d="M155.938 163.75C153.347 163.75 151.25 161.653 151.25 159.062C151.25 151.287 155.588 147.112 159.075 143.762C162.147 140.806 163.75 139.119 163.75 135.962C163.75 129.569 156.738 129.384 155.938 129.384C153.303 129.384 148.681 130.512 148.078 134.734C147.713 137.297 145.319 139.072 142.775 138.709C140.213 138.34 138.431 135.969 138.8 133.406C140.119 124.2 148.609 120.006 155.941 120.006C164.481 120.006 173.128 125.487 173.128 135.959C173.128 143.25 168.941 147.278 165.575 150.512C162.413 153.556 160.625 155.453 160.625 159.062C160.625 161.653 158.528 163.75 155.938 163.75ZM155.938 170C154.694 170 153.502 170.494 152.623 171.373C151.744 172.252 151.25 173.444 151.25 174.687C151.25 175.931 151.744 177.123 152.623 178.002C153.502 178.881 154.694 179.375 155.938 179.375C157.181 179.375 158.373 178.881 159.252 178.002C160.131 177.123 160.625 175.931 160.625 174.687C160.625 173.444 160.131 172.252 159.252 171.373C158.373 170.494 157.181 170 155.938 170Z" fill="#F1FCFF"/>
</g>
<defs>
<clipPath id="clip0">
<rect width="200" height="200" fill="white" transform="translate(45 45)"/>
</clipPath>
</defs>
</svg>
