<svg width="1410" height="1895" viewBox="0 0 1410 1895" fill="none" xmlns="http://www.w3.org/2000/svg">
<ellipse cx="750.924" cy="1202.24" rx="132.892" ry="132.808" transform="rotate(90 750.924 1202.24)" fill="#6C63FF" fill-opacity="0.35"/>
<ellipse cx="1170.45" cy="1461.81" rx="132.892" ry="132.808" transform="rotate(90 1170.45 1461.81)" fill="#6C63FF" fill-opacity="0.35"/>
<ellipse cx="861.391" cy="596.152" rx="132.892" ry="132.808" transform="rotate(90 861.391 596.152)" fill="#6C63FF" fill-opacity="0.35"/>
<path d="M1352.71 1202.24C1266.68 1202.24 1196.94 1132.46 1196.94 1046.37C1196.94 960.287 1266.68 890.502 1352.71 890.502C1438.74 890.502 1402.36 960.287 1402.36 1046.37C1402.36 1132.46 1438.74 1202.24 1352.71 1202.24Z" fill="#6C63FF" fill-opacity="0.35"/>
<path d="M327.484 890.502C241.455 890.502 171.714 820.717 171.714 734.633C171.714 648.549 241.455 578.764 327.484 578.764C413.514 578.764 377.132 648.549 377.132 734.633C377.132 820.717 413.514 890.502 327.484 890.502Z" fill="#6C63FF" fill-opacity="0.35"/>
<ellipse cx="542.403" cy="771.272" rx="36.0175" ry="35.9947" transform="rotate(90 542.403 771.272)" fill="#6C63FF" fill-opacity="0.35"/>
<ellipse cx="516.959" cy="369.49" rx="61.4782" ry="61.4393" transform="rotate(90 516.959 369.49)" fill="#6C63FF" fill-opacity="0.35"/>
<path d="M358.706 1895C237.374 1895 139.014 1796.58 139.014 1675.17C139.014 1553.76 237.374 1605 358.706 1605C480.038 1605 578.398 1553.76 578.398 1675.17C578.398 1796.58 480.038 1895 358.706 1895Z" fill="#6C63FF" fill-opacity="0.35"/>
<ellipse cx="987.372" cy="1728.22" rx="107.432" ry="107.364" transform="rotate(90 987.372 1728.22)" fill="#6C63FF" fill-opacity="0.35"/>
<ellipse cx="855.185" cy="104.327" rx="104.327" ry="104.261" transform="rotate(90 855.185 104.327)" fill="#6C63FF" fill-opacity="0.35"/>
<ellipse cx="1196.51" cy="276.962" rx="104.327" ry="104.261" transform="rotate(90 1196.51 276.962)" fill="#6C63FF" fill-opacity="0.35"/>
<ellipse cx="171.906" cy="172.015" rx="172.015" ry="171.906" transform="rotate(90 171.906 172.015)" fill="#6C63FF" fill-opacity="0.35"/>
</svg>
