<svg width="290" height="290" viewBox="0 0 290 290" fill="none" xmlns="http://www.w3.org/2000/svg">
<circle cx="145" cy="145" r="145" fill="#6C63FF" fill-opacity="0.42"/>
<path d="M237.5 238.75C226.25 238.25 213.25 234.75 200.5 229L200 228.75L199.5 229C191 232.25 181.75 234 172.5 234C136 234 106.25 208.75 106.25 177.75C106.25 146.75 136 121.25 172.5 121.25C209 121.25 238.75 146.5 238.75 177.5C238.75 190.5 233.5 203.25 223.75 213.25L223.25 214L223.75 214.75C228 224 232.75 232 237.5 238.75Z" fill="#372FAF"/>
<path d="M52.5 168.75C57.25 162.25 62 154 66.5 144.75L67 144L66.5 143.25C56.75 133.25 51.5 120.5 51.5 107.5C51.25 76.5 81 51.25 117.5 51.25C154 51.25 183.75 76.5 183.75 107.5C183.75 138.5 154 163.75 117.5 163.75C108 163.75 99 162 90.5 158.75H90L89.5 159C76.75 164.75 63.75 168.25 52.5 168.75Z" fill="#6159E5"/>
</svg>
