<svg width="124" height="124" viewBox="0 0 124 124" fill="none" xmlns="http://www.w3.org/2000/svg">
<circle cx="62" cy="62" r="62" fill="#6C63FF" fill-opacity="0.31"/>
<path d="M87.3971 42.125H77.5388L55.8125 30.5L31.1667 43.675V80.875C26.9958 80.875 23.5833 77.3875 23.5833 73.125V42.7838C23.5833 40.73 24.7967 38.56 26.6167 37.5912L55.8125 22.75L84.4017 37.5912C86.0321 38.4825 87.1696 40.3037 87.3971 42.125ZM91.8333 46H42.5417C38.3708 46 34.9583 49.4875 34.9583 53.75V88.625C34.9583 92.8875 38.3708 96.375 42.5417 96.375H91.8333C96.0042 96.375 99.4167 92.8875 99.4167 88.625V53.75C99.4167 49.4875 96.0042 46 91.8333 46ZM91.8333 60.2212L67.1875 73.125L42.5417 60.2212V53.75L67.1875 66.6538L91.8333 53.75V60.2212Z" fill="#6C63FF"/>
</svg>
