<svg width="124" height="124" viewBox="0 0 124 124" fill="none" xmlns="http://www.w3.org/2000/svg">
<path d="M61 76.3333C67.9167 76.3333 73.4583 70.75 73.4583 63.8333L73.5 38.8333C73.5 31.9167 67.9167 26.3333 61 26.3333C54.0833 26.3333 48.5 31.9167 48.5 38.8333V63.8333C48.5 70.75 54.0833 76.3333 61 76.3333ZM83.0833 63.8333C83.0833 76.3333 72.5 85.0833 61 85.0833C49.5 85.0833 38.9167 76.3333 38.9167 63.8333H31.8333C31.8333 78.0417 43.1667 89.7917 56.8333 91.8333V105.5H65.1667V91.8333C78.8333 89.8333 90.1667 78.0833 90.1667 63.8333H83.0833Z" fill="#6C63FF"/>
<circle cx="62" cy="62" r="62" fill="#6C63FF" fill-opacity="0.31"/>
</svg>
