<svg width="290" height="290" viewBox="0 0 290 290" fill="none" xmlns="http://www.w3.org/2000/svg">
<circle cx="145" cy="145" r="145" fill="#18540f" fill-opacity="0.42"/>
<path d="M201.25 82.5H88.75C81.8469 82.5 76.25 88.0969 76.25 95V207.5C76.25 214.403 81.8469 220 88.75 220H201.25C208.153 220 213.75 214.403 213.75 207.5V95C213.75 88.0969 208.153 82.5 201.25 82.5Z" fill="url(#paint0_linear)"/>
<path d="M177.812 148.125H187.188C189.775 148.125 191.875 146.025 191.875 143.438V134.062C191.875 131.475 189.775 129.375 187.188 129.375H177.812C175.225 129.375 173.125 131.475 173.125 134.062V143.438C173.125 146.025 175.225 148.125 177.812 148.125ZM152.812 198.125H162.188C164.775 198.125 166.875 196.025 166.875 193.438V184.062C166.875 181.475 164.775 179.375 162.188 179.375H152.812C150.225 179.375 148.125 181.475 148.125 184.062V193.438C148.125 196.025 150.225 198.125 152.812 198.125ZM102.812 198.125H112.188C114.775 198.125 116.875 196.025 116.875 193.438V184.062C116.875 181.475 114.775 179.375 112.188 179.375H102.812C100.225 179.375 98.125 181.475 98.125 184.062V193.438C98.125 196.025 100.225 198.125 102.812 198.125ZM127.812 198.125H137.188C139.775 198.125 141.875 196.025 141.875 193.438V184.062C141.875 181.475 139.775 179.375 137.188 179.375H127.812C125.225 179.375 123.125 181.475 123.125 184.062V193.438C123.125 196.025 125.225 198.125 127.812 198.125ZM152.812 148.125H162.188C164.775 148.125 166.875 146.025 166.875 143.438V134.062C166.875 131.475 164.775 129.375 162.188 129.375H152.812C150.225 129.375 148.125 131.475 148.125 134.062V143.438C148.125 146.025 150.225 148.125 152.812 148.125ZM127.812 173.125H137.188C139.775 173.125 141.875 171.025 141.875 168.438V159.062C141.875 156.475 139.775 154.375 137.188 154.375H127.812C125.225 154.375 123.125 156.475 123.125 159.062V168.438C123.125 171.025 125.225 173.125 127.812 173.125ZM102.812 173.125H112.188C114.775 173.125 116.875 171.025 116.875 168.438V159.062C116.875 156.475 114.775 154.375 112.188 154.375H102.812C100.225 154.375 98.125 156.475 98.125 159.062V168.438C98.125 171.025 100.225 173.125 102.812 173.125ZM177.812 173.125H187.188C189.775 173.125 191.875 171.025 191.875 168.438V159.062C191.875 156.475 189.775 154.375 187.188 154.375H177.812C175.225 154.375 173.125 156.475 173.125 159.062V168.438C173.125 171.025 175.225 173.125 177.812 173.125ZM127.812 148.125H137.188C139.775 148.125 141.875 146.025 141.875 143.438V134.062C141.875 131.475 139.775 129.375 137.188 129.375H127.812C125.225 129.375 123.125 131.475 123.125 134.062V143.438C123.125 146.025 125.225 148.125 127.812 148.125ZM152.812 173.125H162.188C164.775 173.125 166.875 171.025 166.875 168.438V159.062C166.875 156.475 164.775 154.375 162.188 154.375H152.812C150.225 154.375 148.125 156.475 148.125 159.062V168.438C148.125 171.025 150.225 173.125 152.812 173.125ZM102.812 148.125H112.188C114.775 148.125 116.875 146.025 116.875 143.438V134.062C116.875 131.475 114.775 129.375 112.188 129.375H102.812C100.225 129.375 98.125 131.475 98.125 134.062V143.438C98.125 146.025 100.225 148.125 102.812 148.125Z" fill="url(#paint1_linear)"/>
<path d="M112.188 123.125H102.812C100.225 123.125 98.125 121.025 98.125 118.438V109.062C98.125 106.475 100.225 104.375 102.812 104.375H112.188C114.775 104.375 116.875 106.475 116.875 109.062V118.438C116.875 121.025 114.775 123.125 112.188 123.125ZM137.188 104.375H127.812C125.225 104.375 123.125 106.475 123.125 109.062V118.438C123.125 121.025 125.225 123.125 127.812 123.125H137.188C139.775 123.125 141.875 121.025 141.875 118.438V109.062C141.875 106.475 139.775 104.375 137.188 104.375ZM162.188 104.375H152.812C150.225 104.375 148.125 106.475 148.125 109.062V118.438C148.125 121.025 150.225 123.125 152.812 123.125H162.188C164.775 123.125 166.875 121.025 166.875 118.438V109.062C166.875 106.475 164.775 104.375 162.188 104.375ZM187.188 104.375H177.812C175.225 104.375 173.125 106.475 173.125 109.062V118.438C173.125 121.025 175.225 123.125 177.812 123.125H187.188C189.775 123.125 191.875 121.025 191.875 118.438V109.062C191.875 106.475 189.775 104.375 187.188 104.375Z" fill="#DCDCDC"/>
<path d="M207.5 176.25C199.212 176.25 191.263 179.542 185.403 185.403C179.542 191.263 176.25 199.212 176.25 207.5C176.25 215.788 179.542 223.737 185.403 229.597C191.263 235.458 199.212 238.75 207.5 238.75C215.788 238.75 223.737 235.458 229.597 229.597C235.458 223.737 238.75 215.788 238.75 207.5C238.75 199.212 235.458 191.263 229.597 185.403C223.737 179.542 215.788 176.25 207.5 176.25Z" fill="white"/>
<path d="M207.5 170C186.791 170 170 186.791 170 207.5C170 228.209 186.791 245 207.5 245C228.209 245 245 228.209 245 207.5C245 186.791 228.209 170 207.5 170ZM207.5 232.5C193.694 232.5 182.5 221.306 182.5 207.5C182.5 193.694 193.694 182.5 207.5 182.5C221.306 182.5 232.5 193.694 232.5 207.5C232.5 221.306 221.306 232.5 207.5 232.5Z" fill="url(#paint2_linear)"/>
<path d="M222.209 217.791L213.519 209.1C213.653 208.584 213.75 208.056 213.75 207.5C213.75 205.194 212.484 203.2 210.625 202.116V191.875C210.625 190.147 209.228 188.75 207.5 188.75C205.772 188.75 204.375 190.147 204.375 191.875V202.116C202.516 203.197 201.25 205.191 201.25 207.5C201.25 210.953 204.047 213.75 207.5 213.75C208.056 213.75 208.584 213.653 209.1 213.519L217.791 222.209C218.4 222.819 219.2 223.125 220 223.125C220.8 223.125 221.6 222.819 222.209 222.209C223.431 220.988 223.431 219.012 222.209 217.791Z" fill="#18540f"/>
<defs>
<linearGradient id="paint0_linear" x1="145" y1="225.787" x2="145" y2="88.2875" gradientUnits="userSpaceOnUse">
<stop stop-color="#18540f"/>
<stop offset="0.140625" stop-color="#18540f"/>
<stop offset="0.307292" stop-color="#18540f" stop-opacity="0.85"/>
<stop offset="0.833333" stop-color="#18540f" stop-opacity="0.75"/>
</linearGradient>
<linearGradient id="paint1_linear" x1="145" y1="198.125" x2="145" y2="129.375" gradientUnits="userSpaceOnUse">
<stop stop-color="#FFF5D5"/>
<stop offset="1" stop-color="white"/>
</linearGradient>
<linearGradient id="paint2_linear" x1="207.5" y1="245" x2="207.5" y2="170" gradientUnits="userSpaceOnUse">
<stop offset="0.0208333" stop-color="#372FAF"/>
<stop offset="0.625" stop-color="#372FAF" stop-opacity="0.83"/>
<stop offset="1" stop-color="#18540f"/>
</linearGradient>
</defs>
</svg>
