<svg width="120" height="120" viewBox="0 0 120 120" fill="none" xmlns="http://www.w3.org/2000/svg">
<path d="M16.875 93.75V37.5H103.125V93.75C103.125 98.9269 98.9269 103.125 93.75 103.125H26.25C21.0731 103.125 16.875 98.9269 16.875 93.75Z" fill="#242059"/>
<path d="M103.125 27.75V43.125H16.875V27.75C16.875 22.7756 20.9362 18.75 25.9537 18.75H94.0462C99.0638 18.75 103.125 22.7756 103.125 27.75Z" fill="#18540f"/>
<path d="M46.2281 18.75H34.395C31.74 20.6156 30 23.6962 30 27.1875C30 32.88 34.62 37.5 40.3125 37.5C46.005 37.5 50.625 32.88 50.625 27.1875C50.625 23.6962 48.885 20.6156 46.2281 18.75Z" fill="#372FAF" fill-opacity="0.92"/>
<path d="M40.3125 31.875C37.7344 31.875 35.625 29.7656 35.625 27.1875V15.9375C35.625 13.3594 37.7344 11.25 40.3125 11.25C42.8906 11.25 45 13.3594 45 15.9375V27.1875C45 29.7656 42.8906 31.875 40.3125 31.875Z" fill="url(#paint0_linear)"/>
<path d="M85.6031 18.75H73.77C71.115 20.6156 69.375 23.6962 69.375 27.1875C69.375 32.88 73.995 37.5 79.6875 37.5C85.38 37.5 90 32.88 90 27.1875C90 23.6962 88.26 20.6156 85.6031 18.75Z" fill="#372FAF" fill-opacity="0.92"/>
<path d="M79.6875 31.875C77.1094 31.875 75 29.7656 75 27.1875V15.9375C75 13.3594 77.1094 11.25 79.6875 11.25C82.2656 11.25 84.375 13.3594 84.375 15.9375V27.1875C84.375 29.7656 82.2656 31.875 79.6875 31.875Z" fill="url(#paint1_linear)"/>
<path d="M40.4141 61.1094H51.5078C51.5729 61.1094 51.8333 61.3698 52.2891 61.8906C52.2891 61.9557 51.5078 62.737 49.9453 64.2344H41.9766C41.9115 64.2344 41.1302 63.4531 39.6328 61.8906C39.6328 61.8255 39.8932 61.5651 40.4141 61.1094ZM38.8516 61.9688C38.9167 61.9688 39.6979 62.75 41.1953 64.3125V72.2812C41.1953 72.3464 40.4141 73.1276 38.8516 74.625C38.7865 74.625 38.526 74.3646 38.0703 73.8438V62.75C38.0703 62.6849 38.3307 62.4245 38.8516 61.9688ZM41.1953 73.375H50.4141C50.4792 73.375 51 73.8958 51.9766 74.9375V75.0156C51.9766 75.0807 51.4557 75.6016 50.4141 76.5781H41.1953C41.1302 76.5781 40.6094 76.0573 39.6328 75.0156V74.9375C39.6328 74.8724 40.1536 74.3516 41.1953 73.375ZM38.8516 75.4062C38.9167 75.4062 39.6979 76.1875 41.1953 77.75V86.6562C41.1953 86.7214 40.4141 87.5026 38.8516 89C38.7865 89 38.526 88.7396 38.0703 88.2188V76.1875C38.0703 76.1224 38.3307 75.862 38.8516 75.4062ZM60.1094 61.1094H71.2031C71.2682 61.1094 71.5286 61.3698 71.9844 61.8906C71.9844 61.9557 71.2031 62.737 69.6406 64.2344H61.6719C61.6068 64.2344 60.8255 63.4531 59.3281 61.8906C59.3281 61.8255 59.5885 61.5651 60.1094 61.1094ZM72.6875 61.8906C72.7526 61.8906 73.013 62.151 73.4688 62.6719V73.7656C73.4688 73.8307 73.2083 74.0911 72.6875 74.5469C72.6224 74.5469 71.8411 73.7656 70.3438 72.2031V64.2344C70.3438 64.1693 71.125 63.388 72.6875 61.8906ZM58.5469 61.9688C58.612 61.9688 59.3932 62.75 60.8906 64.3125V72.2812C60.8906 72.3464 60.1094 73.1276 58.5469 74.625C58.4818 74.625 58.2214 74.3646 57.7656 73.8438V62.75C57.7656 62.6849 58.026 62.4245 58.5469 61.9688ZM60.8906 73.375H70.1094C70.1745 73.375 70.6953 73.8958 71.6719 74.9375V75.0156C71.6719 75.0807 71.151 75.6016 70.1094 76.5781H60.8906C60.8255 76.5781 60.3047 76.0573 59.3281 75.0156V74.9375C59.3281 74.8724 59.849 74.3516 60.8906 73.375ZM58.5469 75.4062C58.612 75.4062 59.3932 76.1875 60.8906 77.75V86.6562C60.8906 86.7214 60.1094 87.5026 58.5469 89C58.4818 89 58.2214 88.7396 57.7656 88.2188V76.1875C57.7656 76.1224 58.026 75.862 58.5469 75.4062ZM66.3594 77.3594H68.625C69.7188 77.9193 70.6562 79.612 71.4375 82.4375C71.6458 82.8802 72.3229 84.7292 73.4688 87.9844C73.2083 88.5052 73.0781 88.8177 73.0781 88.9219H73C70.8646 88.1536 69.7969 87.5286 69.7969 87.0469C68.2344 82.6068 67.0365 79.4036 66.2031 77.4375L66.3594 77.3594ZM78.2422 61.1094C78.3073 61.1094 79.0885 61.8906 80.5859 63.4531V72.3594C80.5859 72.4245 79.8047 73.2057 78.2422 74.7031C78.1771 74.7031 77.9167 74.4427 77.4609 73.9219V61.8906C77.4609 61.8255 77.7214 61.5651 78.2422 61.1094ZM79.8047 75.4062C79.8698 75.4062 80.1302 75.6667 80.5859 76.1875V88.2188C80.5859 88.2839 80.3255 88.5443 79.8047 89C79.7396 89 78.9583 88.2188 77.4609 86.6562V77.75C77.4609 77.6849 78.2422 76.9036 79.8047 75.4062Z" fill="white"/>
<defs>
<linearGradient id="paint0_linear" x1="40.3125" y1="11.25" x2="40.3125" y2="31.875" gradientUnits="userSpaceOnUse">
<stop stop-color="#A4A4A4"/>
<stop offset="0.58" stop-color="#828282"/>
<stop offset="0.63" stop-color="#7F7F7F"/>
<stop offset="1" stop-color="#6F6F6F"/>
</linearGradient>
<linearGradient id="paint1_linear" x1="79.6875" y1="11.25" x2="79.6875" y2="31.875" gradientUnits="userSpaceOnUse">
<stop stop-color="#A4A4A4"/>
<stop offset="0.58" stop-color="#828282"/>
<stop offset="0.63" stop-color="#7F7F7F"/>
<stop offset="1" stop-color="#6F6F6F"/>
</linearGradient>
</defs>
</svg>
