<svg width="124" height="124" viewBox="0 0 124 124" fill="none" xmlns="http://www.w3.org/2000/svg">
<circle cx="62" cy="62" r="62" fill="#6C63FF" fill-opacity="0.31"/>
<path d="M20.3333 32.8333H93.25C95.5521 32.8333 97.4167 34.6979 97.4167 37V91.1667C97.4167 93.4687 95.5521 95.3333 93.25 95.3333H34.9167C26.8625 95.3333 20.3333 88.8042 20.3333 80.75V32.8333Z" fill="#6C63FF"/>
<path d="M34.9167 66.1667H39.0833C41.3854 66.1667 43.25 64.3021 43.25 62V24.5C43.25 22.1979 41.3854 20.3333 39.0833 20.3333H34.9167C26.8625 20.3333 20.3333 26.8625 20.3333 34.9167V80.75C20.3333 72.6958 26.8625 66.1667 34.9167 66.1667Z" fill="#B5B2E8"/>
<path d="M50.5417 76.5833H90.125C90.7 76.5833 91.1667 77.05 91.1667 77.625V79.7083C91.1667 80.2833 90.7 80.75 90.125 80.75H50.5417C49.9667 80.75 49.5 80.2833 49.5 79.7083V77.625C49.5 77.05 49.9667 76.5833 50.5417 76.5833Z" fill="#D1CFFF"/>
<path d="M53.4229 67.8813L51.95 66.4083C51.5438 66.0021 51.5438 65.3417 51.95 64.9354L63.7979 53.0875C64.2042 52.6813 64.8646 52.6813 65.2708 53.0875L72.8667 60.6833L81.8104 51.7396L84.7562 54.6854L73.6042 65.8375C73.1979 66.2438 72.5375 66.2438 72.1313 65.8375L64.5354 58.2417L54.8979 67.8792C54.4896 68.2896 53.8312 68.2896 53.4229 67.8813Z" fill="#D1CFFF"/>
<path d="M76.2792 51.2792L85.2229 60.2229C85.8771 60.8771 87 60.4125 87 59.4854V50.5417C87 49.9667 86.5333 49.5 85.9583 49.5H77.0146C76.0875 49.5 75.6229 50.6229 76.2792 51.2792Z" fill="#D1CFFF"/>
</svg>
