<svg width="120" height="120" viewBox="0 0 120 120" fill="none" xmlns="http://www.w3.org/2000/svg">
<path d="M16.875 93.75V37.5H103.125V93.75C103.125 98.9269 98.9269 103.125 93.75 103.125H26.25C21.0731 103.125 16.875 98.9269 16.875 93.75Z" fill="#242059"/>
<path d="M103.125 27.75V43.125H16.875V27.75C16.875 22.7756 20.9362 18.75 25.9537 18.75H94.0462C99.0638 18.75 103.125 22.7756 103.125 27.75Z" fill="#18540f"/>
<path d="M46.2281 18.75H34.395C31.74 20.6156 30 23.6962 30 27.1875C30 32.88 34.62 37.5 40.3125 37.5C46.005 37.5 50.625 32.88 50.625 27.1875C50.625 23.6962 48.885 20.6156 46.2281 18.75Z" fill="#372FAF" fill-opacity="0.92"/>
<path d="M40.3125 31.875C37.7344 31.875 35.625 29.7656 35.625 27.1875V15.9375C35.625 13.3594 37.7344 11.25 40.3125 11.25C42.8906 11.25 45 13.3594 45 15.9375V27.1875C45 29.7656 42.8906 31.875 40.3125 31.875Z" fill="url(#paint0_linear)"/>
<path d="M85.6031 18.75H73.77C71.115 20.6156 69.375 23.6962 69.375 27.1875C69.375 32.88 73.995 37.5 79.6875 37.5C85.38 37.5 90 32.88 90 27.1875C90 23.6962 88.26 20.6156 85.6031 18.75Z" fill="#372FAF" fill-opacity="0.92"/>
<path d="M79.6875 31.875C77.1094 31.875 75 29.7656 75 27.1875V15.9375C75 13.3594 77.1094 11.25 79.6875 11.25C82.2656 11.25 84.375 13.3594 84.375 15.9375V27.1875C84.375 29.7656 82.2656 31.875 79.6875 31.875Z" fill="url(#paint1_linear)"/>
<path d="M26.6719 61.1094H37.7656C37.8307 61.1094 38.0911 61.3698 38.5469 61.8906C38.5469 61.9557 37.7656 62.737 36.2031 64.2344H28.2344C28.1693 64.2344 27.388 63.4531 25.8906 61.8906C25.8906 61.8255 26.151 61.5651 26.6719 61.1094ZM40.8125 61.1094H51.9062C51.9714 61.1094 52.2318 61.3698 52.6875 61.8906C52.6875 61.9557 51.9062 62.737 50.3438 64.2344H42.375C42.3099 64.2344 41.5286 63.4531 40.0312 61.8906C40.0312 61.8255 40.2917 61.5651 40.8125 61.1094ZM39.25 61.8906C39.3151 61.8906 39.5755 62.151 40.0312 62.6719V73.7656C40.0312 73.8307 39.7708 74.0911 39.25 74.5469C39.1849 74.5469 38.4036 73.7656 36.9062 72.2031V64.2344C36.9062 64.1693 37.6875 63.388 39.25 61.8906ZM53.3906 61.8906C53.4557 61.8906 53.7161 62.151 54.1719 62.6719V73.7656C54.1719 73.8307 53.9115 74.0911 53.3906 74.5469C53.3255 74.5469 52.5443 73.7656 51.0469 72.2031V64.2344C51.0469 64.1693 51.8281 63.388 53.3906 61.8906ZM25.1094 61.9688C25.1745 61.9688 25.9557 62.75 27.4531 64.3125V72.2812C27.4531 72.3464 26.6719 73.1276 25.1094 74.625C25.0443 74.625 24.7839 74.3646 24.3281 73.8438V62.75C24.3281 62.6849 24.5885 62.4245 25.1094 61.9688ZM26.6719 75.4062C26.737 75.4062 26.9974 75.6667 27.4531 76.1875V88.2188C27.4531 88.2839 27.1927 88.5443 26.6719 89C26.6068 89 25.8255 88.2188 24.3281 86.6562V77.75C24.3281 77.6849 25.1094 76.9036 26.6719 75.4062ZM39.25 75.4062C39.3151 75.4062 39.5755 75.6667 40.0312 76.1875V88.2188C40.0312 88.2839 39.7708 88.5443 39.25 89C39.1849 89 38.4036 88.2188 36.9062 86.6562V77.75C36.9062 77.6849 37.6875 76.9036 39.25 75.4062ZM51.8281 75.4062C51.8932 75.4062 52.6745 76.1875 54.1719 77.75V86.6562C54.1719 86.7214 53.3906 87.5026 51.8281 89C51.763 89 51.5026 88.7396 51.0469 88.2188V76.1875C51.0469 76.1224 51.3073 75.862 51.8281 75.4062ZM60.625 61.1094H71.7188C71.7839 61.1094 72.0443 61.3698 72.5 61.8906C72.5 61.9557 71.7188 62.737 70.1562 64.2344H62.1875C62.1224 64.2344 61.3411 63.4531 59.8438 61.8906C59.8438 61.8255 60.1042 61.5651 60.625 61.1094ZM73.2031 61.8906C73.2682 61.8906 73.5286 62.151 73.9844 62.6719V73.7656C73.9844 73.8307 73.724 74.0911 73.2031 74.5469C73.138 74.5469 72.3568 73.7656 70.8594 72.2031V64.2344C70.8594 64.1693 71.6406 63.388 73.2031 61.8906ZM59.0625 61.9688C59.1276 61.9688 59.9089 62.75 61.4062 64.3125V72.2812C61.4062 72.3464 60.625 73.1276 59.0625 74.625C58.9974 74.625 58.737 74.3646 58.2812 73.8438V62.75C58.2812 62.6849 58.5417 62.4245 59.0625 61.9688ZM59.0625 75.4062C59.1276 75.4062 59.9089 76.1875 61.4062 77.75V85.7188C61.4062 85.7839 60.625 86.5651 59.0625 88.0625C58.9974 88.0625 58.737 87.8021 58.2812 87.2812V76.1875C58.2812 76.1224 58.5417 75.862 59.0625 75.4062ZM73.2031 75.4844C73.2682 75.4844 73.5286 75.7448 73.9844 76.2656V87.3594C73.9844 87.4245 73.724 87.6849 73.2031 88.1406C73.138 88.1406 72.3568 87.3594 70.8594 85.7969V77.8281C70.8594 77.763 71.6406 76.9818 73.2031 75.4844ZM62.1094 85.875H70.0781C70.1432 85.875 70.9245 86.6562 72.4219 88.2188C72.4219 88.2839 72.1615 88.5443 71.6406 89H60.5469C60.4818 89 60.2214 88.7396 59.7656 88.2188C59.7656 88.1536 60.5469 87.3724 62.1094 85.875ZM78.7578 61.1094C78.8229 61.1094 79.6042 61.8906 81.1016 63.4531V72.3594C81.1016 72.4245 80.3203 73.2057 78.7578 74.7031C78.6927 74.7031 78.4323 74.4427 77.9766 73.9219V61.8906C77.9766 61.8255 78.237 61.5651 78.7578 61.1094ZM92.8984 61.1094C92.9635 61.1094 93.224 61.3698 93.6797 61.8906V73.9219C93.6797 73.987 93.4193 74.2474 92.8984 74.7031C92.8333 74.7031 92.0521 73.9219 90.5547 72.3594V63.4531C90.5547 63.388 91.3359 62.6068 92.8984 61.1094ZM81.9609 64.3125H82.8984C83.901 65.1458 85.6198 66.8385 88.0547 69.3906C88.1979 69.3906 88.7448 69.9115 89.6953 70.9531V74.0781C89.6953 74.1823 89.6432 74.2344 89.5391 74.2344H88.6016C88.5495 74.2344 88.5234 74.2083 88.5234 74.1562L88.3672 74.2344C86.1406 71.8906 83.9531 69.6771 81.8047 67.5938V64.4688C81.8177 64.3646 81.8698 64.3125 81.9609 64.3125ZM78.7578 75.4062C78.8229 75.4062 79.6042 76.1875 81.1016 77.75V86.6562C81.1016 86.7214 80.3203 87.5026 78.7578 89C78.6927 89 78.4323 88.7396 77.9766 88.2188V76.1875C77.9766 76.1224 78.237 75.862 78.7578 75.4062ZM92.8984 75.4062C92.9635 75.4062 93.224 75.6667 93.6797 76.1875V88.2188C93.6797 88.2839 93.4193 88.5443 92.8984 89C92.8333 89 92.0521 88.2188 90.5547 86.6562V77.75C90.5547 77.6849 91.3359 76.9036 92.8984 75.4062Z" fill="white"/>
<defs>
<linearGradient id="paint0_linear" x1="40.3125" y1="11.25" x2="40.3125" y2="31.875" gradientUnits="userSpaceOnUse">
<stop stop-color="#A4A4A4"/>
<stop offset="0.58" stop-color="#828282"/>
<stop offset="0.63" stop-color="#7F7F7F"/>
<stop offset="1" stop-color="#6F6F6F"/>
</linearGradient>
<linearGradient id="paint1_linear" x1="79.6875" y1="11.25" x2="79.6875" y2="31.875" gradientUnits="userSpaceOnUse">
<stop stop-color="#A4A4A4"/>
<stop offset="0.58" stop-color="#828282"/>
<stop offset="0.63" stop-color="#7F7F7F"/>
<stop offset="1" stop-color="#6F6F6F"/>
</linearGradient>
</defs>
</svg>
