<svg width="124" height="124" viewBox="0 0 124 124" fill="none" xmlns="http://www.w3.org/2000/svg">
<circle cx="62" cy="62" r="62" fill="#6C63FF" fill-opacity="0.31"/>
<path d="M62 15C58.3167 15 55.3333 17.9833 55.3333 21.6667V22.6432C45.6967 25.5128 38.6667 34.4311 38.6667 45V54.1927C38.6667 63.2494 35.07 71.93 28.6667 78.3333C27.7826 78.3333 26.9348 78.6845 26.3097 79.3096C25.6845 79.9348 25.3333 80.7826 25.3333 81.6667C25.3333 82.5507 25.6845 83.3986 26.3097 84.0237C26.9348 84.6488 27.7826 85 28.6667 85H58.862C58.7387 83.9033 58.6667 82.7933 58.6667 81.6667C58.6667 66.2267 70.3367 53.522 85.3333 51.862V45C85.3333 34.4311 78.3033 25.5128 68.6667 22.6432V21.6667C68.6667 17.9833 65.6833 15 62 15ZM88.6667 58.3333C75.78 58.3333 65.3333 68.78 65.3333 81.6667C65.3333 94.5533 75.78 105 88.6667 105C101.553 105 112 94.5533 112 81.6667C112 68.78 101.553 58.3333 88.6667 58.3333ZM88.6667 68.3333C90.5067 68.3333 92 69.8233 92 71.6667V78.3333H98.6667C100.507 78.3333 102 79.8233 102 81.6667C102 83.51 100.507 85 98.6667 85H92V91.6667C92 93.51 90.5067 95 88.6667 95C86.8267 95 85.3333 93.51 85.3333 91.6667V85H78.6667C76.8267 85 75.3333 83.51 75.3333 81.6667C75.3333 79.8233 76.8267 78.3333 78.6667 78.3333H85.3333V71.6667C85.3333 69.8233 86.8267 68.3333 88.6667 68.3333ZM52 91.6667C52 97.19 56.4767 101.667 62 101.667C63.3067 101.667 64.5481 101.401 65.6914 100.944C63.4047 98.224 61.6215 95.0833 60.4115 91.6667H52Z" fill="#6C63FF"/>
</svg>
