<svg width="120" height="120" viewBox="0 0 120 120" fill="none" xmlns="http://www.w3.org/2000/svg">
<path d="M16.875 93.75V37.5H103.125V93.75C103.125 98.9269 98.9269 103.125 93.75 103.125H26.25C21.0731 103.125 16.875 98.9269 16.875 93.75Z" fill="#8681DB" fill-opacity="0.87"/>
<path d="M103.125 27.75V43.125H16.875V27.75C16.875 22.7756 20.9362 18.75 25.9537 18.75H94.0462C99.0638 18.75 103.125 22.7756 103.125 27.75Z" fill="#6C63FF"/>
<path d="M46.2281 18.75H34.395C31.74 20.6156 30 23.6962 30 27.1875C30 32.88 34.62 37.5 40.3125 37.5C46.005 37.5 50.625 32.88 50.625 27.1875C50.625 23.6962 48.885 20.6156 46.2281 18.75Z" fill="#372FAF" fill-opacity="0.92"/>
<path d="M40.3125 31.875C37.7344 31.875 35.625 29.7656 35.625 27.1875V15.9375C35.625 13.3594 37.7344 11.25 40.3125 11.25C42.8906 11.25 45 13.3594 45 15.9375V27.1875C45 29.7656 42.8906 31.875 40.3125 31.875Z" fill="url(#paint0_linear)"/>
<path d="M85.6031 18.75H73.77C71.115 20.6156 69.375 23.6962 69.375 27.1875C69.375 32.88 73.995 37.5 79.6875 37.5C85.38 37.5 90 32.88 90 27.1875C90 23.6962 88.26 20.6156 85.6031 18.75Z" fill="#372FAF" fill-opacity="0.92"/>
<path d="M79.6875 31.875C77.1094 31.875 75 29.7656 75 27.1875V15.9375C75 13.3594 77.1094 11.25 79.6875 11.25C82.2656 11.25 84.375 13.3594 84.375 15.9375V27.1875C84.375 29.7656 82.2656 31.875 79.6875 31.875Z" fill="url(#paint1_linear)"/>
<path d="M33.8008 61.1094H44.8945C44.9596 61.1094 45.2201 61.3698 45.6758 61.8906C45.6758 61.9557 44.8945 62.737 43.332 64.2344H35.3633C35.2982 64.2344 34.5169 63.4531 33.0195 61.8906C33.0195 61.8255 33.2799 61.5651 33.8008 61.1094ZM32.2383 61.9688C32.3034 61.9688 33.0846 62.75 34.582 64.3125V72.2812C34.582 72.3464 33.8008 73.1276 32.2383 74.625C32.1732 74.625 31.9128 74.3646 31.457 73.8438V62.75C31.457 62.6849 31.7174 62.4245 32.2383 61.9688ZM34.582 73.375H43.8008C43.8659 73.375 44.3867 73.8958 45.3633 74.9375V75.0156C45.3633 75.0807 44.8424 75.6016 43.8008 76.5781H34.582C34.5169 76.5781 33.9961 76.0573 33.0195 75.0156V74.9375C33.0195 74.8724 33.5404 74.3516 34.582 73.375ZM46.3789 75.4844C46.444 75.4844 46.7044 75.7448 47.1602 76.2656V87.3594C47.1602 87.4245 46.8997 87.6849 46.3789 88.1406C46.3138 88.1406 45.5326 87.3594 44.0352 85.7969V77.8281C44.0352 77.763 44.8164 76.9818 46.3789 75.4844ZM35.2852 85.875H43.2539C43.319 85.875 44.1003 86.6562 45.5977 88.2188C45.5977 88.2839 45.3372 88.5443 44.8164 89H33.7227C33.6576 89 33.3971 88.7396 32.9414 88.2188C32.9414 88.1536 33.7227 87.3724 35.2852 85.875ZM53.4961 61.1094H64.5898C64.6549 61.1094 64.9154 61.3698 65.3711 61.8906C65.3711 61.9557 64.5898 62.737 63.0273 64.2344H55.0586C54.9935 64.2344 54.2122 63.4531 52.7148 61.8906C52.7148 61.8255 52.9753 61.5651 53.4961 61.1094ZM66.0742 61.8906C66.1393 61.8906 66.3997 62.151 66.8555 62.6719V73.7656C66.8555 73.8307 66.5951 74.0911 66.0742 74.5469C66.0091 74.5469 65.2279 73.7656 63.7305 72.2031V64.2344C63.7305 64.1693 64.5117 63.388 66.0742 61.8906ZM51.9336 61.9688C51.9987 61.9688 52.7799 62.75 54.2773 64.3125V72.2812C54.2773 72.3464 53.4961 73.1276 51.9336 74.625C51.8685 74.625 51.6081 74.3646 51.1523 73.8438V62.75C51.1523 62.6849 51.4128 62.4245 51.9336 61.9688ZM54.2773 73.375H63.4961C63.5612 73.375 64.082 73.8958 65.0586 74.9375V75.0156C65.0586 75.0807 64.5378 75.6016 63.4961 76.5781H54.2773C54.2122 76.5781 53.6914 76.0573 52.7148 75.0156V74.9375C52.7148 74.8724 53.2357 74.3516 54.2773 73.375ZM51.9336 75.4062C51.9987 75.4062 52.7799 76.1875 54.2773 77.75V86.6562C54.2773 86.7214 53.4961 87.5026 51.9336 89C51.8685 89 51.6081 88.7396 51.1523 88.2188V76.1875C51.1523 76.1224 51.4128 75.862 51.9336 75.4062ZM66.0742 75.4062C66.1393 75.4062 66.3997 75.6667 66.8555 76.1875V88.2188C66.8555 88.2839 66.5951 88.5443 66.0742 89C66.0091 89 65.2279 88.2188 63.7305 86.6562V77.75C63.7305 77.6849 64.5117 76.9036 66.0742 75.4062ZM71.6289 61.1094H85.7695C85.8346 61.1094 86.0951 61.3698 86.5508 61.8906C86.5508 61.9557 85.7695 62.737 84.207 64.2344H73.1914C73.1263 64.2344 72.3451 63.4531 70.8477 61.8906C70.8477 61.8255 71.1081 61.5651 71.6289 61.1094ZM78.4258 65.6406C78.4909 65.6406 79.2721 66.4219 80.7695 67.9844V74.3125C80.7695 74.3776 79.9883 75.1589 78.4258 76.6562C78.3607 76.6562 78.1003 76.3958 77.6445 75.875V66.4219C77.6445 66.3568 77.9049 66.0964 78.4258 65.6406ZM79.9883 78.0625C80.0534 78.0625 80.3138 78.3229 80.7695 78.8438V88.2188C80.7695 88.2839 80.5091 88.5443 79.9883 89C79.9232 89 79.1419 88.2188 77.6445 86.6562V80.4062C77.6445 80.3411 78.4258 79.5599 79.9883 78.0625Z" fill="#372FAF"/>
<defs>
<linearGradient id="paint0_linear" x1="40.3125" y1="11.25" x2="40.3125" y2="31.875" gradientUnits="userSpaceOnUse">
<stop stop-color="#A4A4A4"/>
<stop offset="0.58" stop-color="#828282"/>
<stop offset="0.63" stop-color="#7F7F7F"/>
<stop offset="1" stop-color="#6F6F6F"/>
</linearGradient>
<linearGradient id="paint1_linear" x1="79.6875" y1="11.25" x2="79.6875" y2="31.875" gradientUnits="userSpaceOnUse">
<stop stop-color="#A4A4A4"/>
<stop offset="0.58" stop-color="#828282"/>
<stop offset="0.63" stop-color="#7F7F7F"/>
<stop offset="1" stop-color="#6F6F6F"/>
</linearGradient>
</defs>
</svg>
