<svg width="120" height="120" viewBox="0 0 120 120" fill="none" xmlns="http://www.w3.org/2000/svg">
<path d="M16.875 93.75V37.5H103.125V93.75C103.125 98.9269 98.9269 103.125 93.75 103.125H26.25C21.0731 103.125 16.875 98.9269 16.875 93.75Z" fill="#8681DB" fill-opacity="0.87"/>
<path d="M103.125 27.75V43.125H16.875V27.75C16.875 22.7756 20.9362 18.75 25.9537 18.75H94.0462C99.0638 18.75 103.125 22.7756 103.125 27.75Z" fill="#18540f"/>
<path d="M46.2281 18.75H34.395C31.74 20.6156 30 23.6962 30 27.1875C30 32.88 34.62 37.5 40.3125 37.5C46.005 37.5 50.625 32.88 50.625 27.1875C50.625 23.6962 48.885 20.6156 46.2281 18.75Z" fill="#372FAF" fill-opacity="0.92"/>
<path d="M40.3125 31.875C37.7344 31.875 35.625 29.7656 35.625 27.1875V15.9375C35.625 13.3594 37.7344 11.25 40.3125 11.25C42.8906 11.25 45 13.3594 45 15.9375V27.1875C45 29.7656 42.8906 31.875 40.3125 31.875Z" fill="url(#paint0_linear)"/>
<path d="M85.6031 18.75H73.77C71.115 20.6156 69.375 23.6962 69.375 27.1875C69.375 32.88 73.995 37.5 79.6875 37.5C85.38 37.5 90 32.88 90 27.1875C90 23.6962 88.26 20.6156 85.6031 18.75Z" fill="#372FAF" fill-opacity="0.92"/>
<path d="M79.6875 31.875C77.1094 31.875 75 29.7656 75 27.1875V15.9375C75 13.3594 77.1094 11.25 79.6875 11.25C82.2656 11.25 84.375 13.3594 84.375 15.9375V27.1875C84.375 29.7656 82.2656 31.875 79.6875 31.875Z" fill="url(#paint1_linear)"/>
<path d="M33.8008 61.1094H44.8945C44.9596 61.1094 45.2201 61.3698 45.6758 61.8906C45.6758 61.9557 44.8945 62.737 43.332 64.2344H35.3633C35.2982 64.2344 34.5169 63.4531 33.0195 61.8906C33.0195 61.8255 33.2799 61.5651 33.8008 61.1094ZM32.2383 61.9688C32.3034 61.9688 33.0846 62.75 34.582 64.3125V72.2812C34.582 72.3464 33.8008 73.1276 32.2383 74.625C32.1732 74.625 31.9128 74.3646 31.457 73.8438V62.75C31.457 62.6849 31.7174 62.4245 32.2383 61.9688ZM34.582 73.375H43.8008C43.8659 73.375 44.3867 73.8958 45.3633 74.9375V75.0156C45.3633 75.0807 44.8424 75.6016 43.8008 76.5781H34.582C34.5169 76.5781 33.9961 76.0573 33.0195 75.0156V74.9375C33.0195 74.8724 33.5404 74.3516 34.582 73.375ZM46.3789 75.4844C46.444 75.4844 46.7044 75.7448 47.1602 76.2656V87.3594C47.1602 87.4245 46.8997 87.6849 46.3789 88.1406C46.3138 88.1406 45.5326 87.3594 44.0352 85.7969V77.8281C44.0352 77.763 44.8164 76.9818 46.3789 75.4844ZM35.2852 85.875H43.2539C43.319 85.875 44.1003 86.6562 45.5977 88.2188C45.5977 88.2839 45.3372 88.5443 44.8164 89H33.7227C33.6576 89 33.3971 88.7396 32.9414 88.2188C32.9414 88.1536 33.7227 87.3724 35.2852 85.875ZM51.9336 61.1094C51.9987 61.1094 52.7799 61.8906 54.2773 63.4531V72.3594C54.2773 72.4245 53.4961 73.2057 51.9336 74.7031C51.8685 74.7031 51.6081 74.4427 51.1523 73.9219V61.8906C51.1523 61.8255 51.4128 61.5651 51.9336 61.1094ZM66.0742 61.1094C66.1393 61.1094 66.3997 61.3698 66.8555 61.8906V73.9219C66.8555 73.987 66.5951 74.2474 66.0742 74.7031C66.0091 74.7031 65.2279 73.9219 63.7305 72.3594V63.4531C63.7305 63.388 64.5117 62.6068 66.0742 61.1094ZM51.9336 75.4844C51.9987 75.4844 52.7799 76.2656 54.2773 77.8281V85.7969C54.2773 85.862 53.4961 86.6432 51.9336 88.1406C51.8685 88.1406 51.6081 87.8802 51.1523 87.3594V76.2656C51.1523 76.2005 51.4128 75.9401 51.9336 75.4844ZM66.0742 75.5625C66.1393 75.5625 66.3997 75.8229 66.8555 76.3438V87.4375C66.8555 87.5026 66.5951 87.763 66.0742 88.2188C66.0091 88.2188 65.2279 87.4375 63.7305 85.875V77.9062C63.7305 77.8411 64.5117 77.0599 66.0742 75.5625ZM55.0586 85.875H63.0273C63.0924 85.875 63.8737 86.6562 65.3711 88.2188C65.3711 88.2839 65.1107 88.5443 64.5898 89H53.4961C53.431 89 53.1706 88.7396 52.7148 88.2188C52.7148 88.1536 53.4961 87.3724 55.0586 85.875ZM71.6289 61.1094C71.694 61.1094 72.4753 61.8906 73.9727 63.4531V72.3594C73.9727 72.4245 73.1914 73.2057 71.6289 74.7031C71.5638 74.7031 71.3034 74.4427 70.8477 73.9219V61.8906C70.8477 61.8255 71.1081 61.5651 71.6289 61.1094ZM85.7695 61.1094C85.8346 61.1094 86.0951 61.3698 86.5508 61.8906V73.9219C86.5508 73.987 86.2904 74.2474 85.7695 74.7031C85.7044 74.7031 84.9232 73.9219 83.4258 72.3594V63.4531C83.4258 63.388 84.207 62.6068 85.7695 61.1094ZM74.832 64.3125H75.7695C76.7721 65.1458 78.4909 66.8385 80.9258 69.3906C81.069 69.3906 81.6159 69.9115 82.5664 70.9531V74.0781C82.5664 74.1823 82.5143 74.2344 82.4102 74.2344H81.4727C81.4206 74.2344 81.3945 74.2083 81.3945 74.1562L81.2383 74.2344C79.0117 71.8906 76.8242 69.6771 74.6758 67.5938V64.4688C74.6888 64.3646 74.7409 64.3125 74.832 64.3125ZM71.6289 75.4062C71.694 75.4062 72.4753 76.1875 73.9727 77.75V86.6562C73.9727 86.7214 73.1914 87.5026 71.6289 89C71.5638 89 71.3034 88.7396 70.8477 88.2188V76.1875C70.8477 76.1224 71.1081 75.862 71.6289 75.4062ZM85.7695 75.4062C85.8346 75.4062 86.0951 75.6667 86.5508 76.1875V88.2188C86.5508 88.2839 86.2904 88.5443 85.7695 89C85.7044 89 84.9232 88.2188 83.4258 86.6562V77.75C83.4258 77.6849 84.207 76.9036 85.7695 75.4062Z" fill="#372FAF"/>
<defs>
<linearGradient id="paint0_linear" x1="40.3125" y1="11.25" x2="40.3125" y2="31.875" gradientUnits="userSpaceOnUse">
<stop stop-color="#A4A4A4"/>
<stop offset="0.58" stop-color="#828282"/>
<stop offset="0.63" stop-color="#7F7F7F"/>
<stop offset="1" stop-color="#6F6F6F"/>
</linearGradient>
<linearGradient id="paint1_linear" x1="79.6875" y1="11.25" x2="79.6875" y2="31.875" gradientUnits="userSpaceOnUse">
<stop stop-color="#A4A4A4"/>
<stop offset="0.58" stop-color="#828282"/>
<stop offset="0.63" stop-color="#7F7F7F"/>
<stop offset="1" stop-color="#6F6F6F"/>
</linearGradient>
</defs>
</svg>
