<svg width="124" height="124" viewBox="0 0 124 124" fill="none" xmlns="http://www.w3.org/2000/svg">
<circle cx="62" cy="62" r="62" fill="#18540f" fill-opacity="0.31"/>
<path d="M90.125 30.75H33.875C30.4234 30.75 27.625 33.5484 27.625 37V93.25C27.625 96.7016 30.4234 99.5 33.875 99.5H90.125C93.5766 99.5 96.375 96.7016 96.375 93.25V37C96.375 33.5484 93.5766 30.75 90.125 30.75Z" fill="#18540f"/>
<path d="M78.4062 63.5625H83.0938C84.3875 63.5625 85.4375 62.5125 85.4375 61.2188V56.5312C85.4375 55.2375 84.3875 54.1875 83.0938 54.1875H78.4062C77.1125 54.1875 76.0625 55.2375 76.0625 56.5312V61.2188C76.0625 62.5125 77.1125 63.5625 78.4062 63.5625ZM65.9062 88.5625H70.5938C71.8875 88.5625 72.9375 87.5125 72.9375 86.2188V81.5312C72.9375 80.2375 71.8875 79.1875 70.5938 79.1875H65.9062C64.6125 79.1875 63.5625 80.2375 63.5625 81.5312V86.2188C63.5625 87.5125 64.6125 88.5625 65.9062 88.5625ZM40.9062 88.5625H45.5938C46.8875 88.5625 47.9375 87.5125 47.9375 86.2188V81.5312C47.9375 80.2375 46.8875 79.1875 45.5938 79.1875H40.9062C39.6125 79.1875 38.5625 80.2375 38.5625 81.5312V86.2188C38.5625 87.5125 39.6125 88.5625 40.9062 88.5625ZM53.4062 88.5625H58.0938C59.3875 88.5625 60.4375 87.5125 60.4375 86.2188V81.5312C60.4375 80.2375 59.3875 79.1875 58.0938 79.1875H53.4062C52.1125 79.1875 51.0625 80.2375 51.0625 81.5312V86.2188C51.0625 87.5125 52.1125 88.5625 53.4062 88.5625ZM65.9062 63.5625H70.5938C71.8875 63.5625 72.9375 62.5125 72.9375 61.2188V56.5312C72.9375 55.2375 71.8875 54.1875 70.5938 54.1875H65.9062C64.6125 54.1875 63.5625 55.2375 63.5625 56.5312V61.2188C63.5625 62.5125 64.6125 63.5625 65.9062 63.5625ZM53.4062 76.0625H58.0938C59.3875 76.0625 60.4375 75.0125 60.4375 73.7188V69.0312C60.4375 67.7375 59.3875 66.6875 58.0938 66.6875H53.4062C52.1125 66.6875 51.0625 67.7375 51.0625 69.0312V73.7188C51.0625 75.0125 52.1125 76.0625 53.4062 76.0625ZM40.9062 76.0625H45.5938C46.8875 76.0625 47.9375 75.0125 47.9375 73.7188V69.0312C47.9375 67.7375 46.8875 66.6875 45.5938 66.6875H40.9062C39.6125 66.6875 38.5625 67.7375 38.5625 69.0312V73.7188C38.5625 75.0125 39.6125 76.0625 40.9062 76.0625ZM78.4062 76.0625H83.0938C84.3875 76.0625 85.4375 75.0125 85.4375 73.7188V69.0312C85.4375 67.7375 84.3875 66.6875 83.0938 66.6875H78.4062C77.1125 66.6875 76.0625 67.7375 76.0625 69.0312V73.7188C76.0625 75.0125 77.1125 76.0625 78.4062 76.0625ZM53.4062 63.5625H58.0938C59.3875 63.5625 60.4375 62.5125 60.4375 61.2188V56.5312C60.4375 55.2375 59.3875 54.1875 58.0938 54.1875H53.4062C52.1125 54.1875 51.0625 55.2375 51.0625 56.5312V61.2188C51.0625 62.5125 52.1125 63.5625 53.4062 63.5625ZM65.9062 76.0625H70.5938C71.8875 76.0625 72.9375 75.0125 72.9375 73.7188V69.0312C72.9375 67.7375 71.8875 66.6875 70.5938 66.6875H65.9062C64.6125 66.6875 63.5625 67.7375 63.5625 69.0312V73.7188C63.5625 75.0125 64.6125 76.0625 65.9062 76.0625ZM40.9062 63.5625H45.5938C46.8875 63.5625 47.9375 62.5125 47.9375 61.2188V56.5312C47.9375 55.2375 46.8875 54.1875 45.5938 54.1875H40.9062C39.6125 54.1875 38.5625 55.2375 38.5625 56.5312V61.2188C38.5625 62.5125 39.6125 63.5625 40.9062 63.5625Z" fill="#DCDCDC"/>
<path d="M45.5938 51.0625H40.9062C39.6125 51.0625 38.5625 50.0125 38.5625 48.7188V44.0312C38.5625 42.7375 39.6125 41.6875 40.9062 41.6875H45.5938C46.8875 41.6875 47.9375 42.7375 47.9375 44.0312V48.7188C47.9375 50.0125 46.8875 51.0625 45.5938 51.0625ZM58.0938 41.6875H53.4062C52.1125 41.6875 51.0625 42.7375 51.0625 44.0312V48.7188C51.0625 50.0125 52.1125 51.0625 53.4062 51.0625H58.0938C59.3875 51.0625 60.4375 50.0125 60.4375 48.7188V44.0312C60.4375 42.7375 59.3875 41.6875 58.0938 41.6875ZM70.5938 41.6875H65.9062C64.6125 41.6875 63.5625 42.7375 63.5625 44.0312V48.7188C63.5625 50.0125 64.6125 51.0625 65.9062 51.0625H70.5938C71.8875 51.0625 72.9375 50.0125 72.9375 48.7188V44.0312C72.9375 42.7375 71.8875 41.6875 70.5938 41.6875ZM83.0938 41.6875H78.4062C77.1125 41.6875 76.0625 42.7375 76.0625 44.0312V48.7188C76.0625 50.0125 77.1125 51.0625 78.4062 51.0625H83.0938C84.3875 51.0625 85.4375 50.0125 85.4375 48.7188V44.0312C85.4375 42.7375 84.3875 41.6875 83.0938 41.6875Z" fill="#D5D6DB"/>
<rect x="76" y="79" width="10" height="10" rx="2" fill="#DCDCDC"/>
</svg>
