<svg width="120" height="120" viewBox="0 0 120 120" fill="none" xmlns="http://www.w3.org/2000/svg">
<path d="M16.875 93.75V37.5H103.125V93.75C103.125 98.9269 98.9269 103.125 93.75 103.125H26.25C21.0731 103.125 16.875 98.9269 16.875 93.75Z" fill="#242059"/>
<path d="M103.125 27.75V43.125H16.875V27.75C16.875 22.7756 20.9362 18.75 25.9537 18.75H94.0462C99.0638 18.75 103.125 22.7756 103.125 27.75Z" fill="#6C63FF"/>
<path d="M46.2281 18.75H34.395C31.74 20.6156 30 23.6962 30 27.1875C30 32.88 34.62 37.5 40.3125 37.5C46.005 37.5 50.625 32.88 50.625 27.1875C50.625 23.6962 48.885 20.6156 46.2281 18.75Z" fill="#372FAF" fill-opacity="0.92"/>
<path d="M40.3125 31.875C37.7344 31.875 35.625 29.7656 35.625 27.1875V15.9375C35.625 13.3594 37.7344 11.25 40.3125 11.25C42.8906 11.25 45 13.3594 45 15.9375V27.1875C45 29.7656 42.8906 31.875 40.3125 31.875Z" fill="url(#paint0_linear)"/>
<path d="M85.6031 18.75H73.77C71.115 20.6156 69.375 23.6962 69.375 27.1875C69.375 32.88 73.995 37.5 79.6875 37.5C85.38 37.5 90 32.88 90 27.1875C90 23.6962 88.26 20.6156 85.6031 18.75Z" fill="#372FAF" fill-opacity="0.92"/>
<path d="M79.6875 31.875C77.1094 31.875 75 29.7656 75 27.1875V15.9375C75 13.3594 77.1094 11.25 79.6875 11.25C82.2656 11.25 84.375 13.3594 84.375 15.9375V27.1875C84.375 29.7656 82.2656 31.875 79.6875 31.875Z" fill="url(#paint1_linear)"/>
<path d="M22.8906 61.1094H37.0312C37.0964 61.1094 37.3568 61.3698 37.8125 61.8906C37.8125 61.9557 37.0312 62.737 35.4688 64.2344H24.4531C24.388 64.2344 23.6068 63.4531 22.1094 61.8906C22.1094 61.8255 22.3698 61.5651 22.8906 61.1094ZM29.6875 65.6406C29.7526 65.6406 30.5339 66.4219 32.0312 67.9844V74.3125C32.0312 74.3776 31.25 75.1589 29.6875 76.6562C29.6224 76.6562 29.362 76.3958 28.9062 75.875V66.4219C28.9062 66.3568 29.1667 66.0964 29.6875 65.6406ZM31.25 78.0625C31.3151 78.0625 31.5755 78.3229 32.0312 78.8438V88.2188C32.0312 88.2839 31.7708 88.5443 31.25 89C31.1849 89 30.4036 88.2188 28.9062 86.6562V80.4062C28.9062 80.3411 29.6875 79.5599 31.25 78.0625ZM42.5859 61.1094C42.651 61.1094 43.4323 61.8906 44.9297 63.4531V72.3594C44.9297 72.4245 44.1484 73.2057 42.5859 74.7031C42.5208 74.7031 42.2604 74.4427 41.8047 73.9219V61.8906C41.8047 61.8255 42.0651 61.5651 42.5859 61.1094ZM56.7266 61.1094C56.7917 61.1094 57.0521 61.3698 57.5078 61.8906V73.9219C57.5078 73.987 57.2474 74.2474 56.7266 74.7031C56.6615 74.7031 55.8802 73.9219 54.3828 72.3594V63.4531C54.3828 63.388 55.1641 62.6068 56.7266 61.1094ZM44.9297 73.375H54.1484C54.2135 73.375 54.7344 73.8958 55.7109 74.9375V75.0156C55.7109 75.0807 55.1901 75.6016 54.1484 76.5781H44.9297C44.8646 76.5781 44.3438 76.0573 43.3672 75.0156V74.9375C43.3672 74.8724 43.888 74.3516 44.9297 73.375ZM42.5859 75.4062C42.651 75.4062 43.4323 76.1875 44.9297 77.75V86.6562C44.9297 86.7214 44.1484 87.5026 42.5859 89C42.5208 89 42.2604 88.7396 41.8047 88.2188V76.1875C41.8047 76.1224 42.0651 75.862 42.5859 75.4062ZM56.7266 75.4062C56.7917 75.4062 57.0521 75.6667 57.5078 76.1875V88.2188C57.5078 88.2839 57.2474 88.5443 56.7266 89C56.6615 89 55.8802 88.2188 54.3828 86.6562V77.75C54.3828 77.6849 55.1641 76.9036 56.7266 75.4062ZM62.2812 61.1094C62.3464 61.1094 63.1276 61.8906 64.625 63.4531V72.3594C64.625 72.4245 63.8438 73.2057 62.2812 74.7031C62.2161 74.7031 61.9557 74.4427 61.5 73.9219V61.8906C61.5 61.8255 61.7604 61.5651 62.2812 61.1094ZM76.4219 61.1094C76.487 61.1094 76.7474 61.3698 77.2031 61.8906V73.9219C77.2031 73.987 76.9427 74.2474 76.4219 74.7031C76.3568 74.7031 75.5755 73.9219 74.0781 72.3594V63.4531C74.0781 63.388 74.8594 62.6068 76.4219 61.1094ZM62.2812 75.4844C62.3464 75.4844 63.1276 76.2656 64.625 77.8281V85.7969C64.625 85.862 63.8438 86.6432 62.2812 88.1406C62.2161 88.1406 61.9557 87.8802 61.5 87.3594V76.2656C61.5 76.2005 61.7604 75.9401 62.2812 75.4844ZM76.4219 75.5625C76.487 75.5625 76.7474 75.8229 77.2031 76.3438V87.4375C77.2031 87.5026 76.9427 87.763 76.4219 88.2188C76.3568 88.2188 75.5755 87.4375 74.0781 85.875V77.9062C74.0781 77.8411 74.8594 77.0599 76.4219 75.5625ZM65.4062 85.875H73.375C73.4401 85.875 74.2214 86.6562 75.7188 88.2188C75.7188 88.2839 75.4583 88.5443 74.9375 89H63.8438C63.7786 89 63.5182 88.7396 63.0625 88.2188C63.0625 88.1536 63.8438 87.3724 65.4062 85.875ZM83.5391 61.1094H94.6328C94.6979 61.1094 94.9583 61.3698 95.4141 61.8906C95.4141 61.9557 94.6328 62.737 93.0703 64.2344H85.1016C85.0365 64.2344 84.2552 63.4531 82.7578 61.8906C82.7578 61.8255 83.0182 61.5651 83.5391 61.1094ZM96.1172 61.8906C96.1823 61.8906 96.4427 62.151 96.8984 62.6719V73.7656C96.8984 73.8307 96.638 74.0911 96.1172 74.5469C96.0521 74.5469 95.2708 73.7656 93.7734 72.2031V64.2344C93.7734 64.1693 94.5547 63.388 96.1172 61.8906ZM81.9766 61.9688C82.0417 61.9688 82.8229 62.75 84.3203 64.3125V72.2812C84.3203 72.3464 83.5391 73.1276 81.9766 74.625C81.9115 74.625 81.651 74.3646 81.1953 73.8438V62.75C81.1953 62.6849 81.4557 62.4245 81.9766 61.9688ZM84.3203 73.375H93.5391C93.6042 73.375 94.125 73.8958 95.1016 74.9375V75.0156C95.1016 75.0807 94.5807 75.6016 93.5391 76.5781H84.3203C84.2552 76.5781 83.7344 76.0573 82.7578 75.0156V74.9375C82.7578 74.8724 83.2786 74.3516 84.3203 73.375ZM81.9766 75.4062C82.0417 75.4062 82.8229 76.1875 84.3203 77.75V86.6562C84.3203 86.7214 83.5391 87.5026 81.9766 89C81.9115 89 81.651 88.7396 81.1953 88.2188V76.1875C81.1953 76.1224 81.4557 75.862 81.9766 75.4062ZM89.7891 77.3594H92.0547C93.1484 77.9193 94.0859 79.612 94.8672 82.4375C95.0755 82.8802 95.7526 84.7292 96.8984 87.9844C96.638 88.5052 96.5078 88.8177 96.5078 88.9219H96.4297C94.2943 88.1536 93.2266 87.5286 93.2266 87.0469C91.6641 82.6068 90.4661 79.4036 89.6328 77.4375L89.7891 77.3594Z" fill="white"/>
<defs>
<linearGradient id="paint0_linear" x1="40.3125" y1="11.25" x2="40.3125" y2="31.875" gradientUnits="userSpaceOnUse">
<stop stop-color="#A4A4A4"/>
<stop offset="0.58" stop-color="#828282"/>
<stop offset="0.63" stop-color="#7F7F7F"/>
<stop offset="1" stop-color="#6F6F6F"/>
</linearGradient>
<linearGradient id="paint1_linear" x1="79.6875" y1="11.25" x2="79.6875" y2="31.875" gradientUnits="userSpaceOnUse">
<stop stop-color="#A4A4A4"/>
<stop offset="0.58" stop-color="#828282"/>
<stop offset="0.63" stop-color="#7F7F7F"/>
<stop offset="1" stop-color="#6F6F6F"/>
</linearGradient>
</defs>
</svg>
