<svg width="124" height="124" viewBox="0 0 124 124" fill="none" xmlns="http://www.w3.org/2000/svg">
<circle cx="62" cy="62" r="62" fill="#6C63FF" fill-opacity="0.31"/>
<path d="M95.1458 44.7917H54.4167C53.4427 44.7917 52.6458 43.9948 52.6458 43.0208V39.4792C52.6458 38.5052 53.4427 37.7083 54.4167 37.7083H95.1458C96.1198 37.7083 96.9167 38.5052 96.9167 39.4792V43.0208C96.9167 43.9948 96.1198 44.7917 95.1458 44.7917Z" fill="#6C63FF"/>
<path d="M30.9726 47.8782L24.7676 41.6732C24.162 41.0676 24.162 40.0848 24.7676 39.4792L26.9617 37.2851C27.5673 36.6795 28.5501 36.6795 29.1557 37.2851L32.0705 40.1999L41.1921 31.0783C41.7977 30.4727 42.7805 30.4727 43.3861 31.0783L45.5802 33.2724C46.1858 33.878 46.1858 34.8608 45.5802 35.4665L33.1667 47.8782C32.561 48.4856 31.5782 48.4856 30.9726 47.8782Z" fill="#6C63FF"/>
<path d="M95.1458 66.0417H54.4167C53.4427 66.0417 52.6458 65.2448 52.6458 64.2708V60.7292C52.6458 59.7552 53.4427 58.9583 54.4167 58.9583H95.1458C96.1198 58.9583 96.9167 59.7552 96.9167 60.7292V64.2708C96.9167 65.2448 96.1198 66.0417 95.1458 66.0417Z" fill="#6C63FF"/>
<path d="M30.9726 69.1282L24.7676 62.9232C24.162 62.3176 24.162 61.3348 24.7676 60.7292L26.9617 58.5351C27.5673 57.9295 28.5501 57.9295 29.1557 58.5351L32.0705 61.4499L41.1921 52.3283C41.7977 51.7227 42.7805 51.7227 43.3861 52.3283L45.5802 54.5224C46.1858 55.128 46.1858 56.1108 45.5802 56.7165L33.1667 69.1282C32.561 69.7356 31.5782 69.7356 30.9726 69.1282Z" fill="#6C63FF"/>
<path d="M95.1458 87.2917H54.4167C53.4427 87.2917 52.6458 86.4948 52.6458 85.5208V81.9792C52.6458 81.0052 53.4427 80.2083 54.4167 80.2083H95.1458C96.1198 80.2083 96.9167 81.0052 96.9167 81.9792V85.5208C96.9167 86.4948 96.1198 87.2917 95.1458 87.2917Z" fill="#6C63FF"/>
<path d="M34.9375 78.4375C32.0032 78.4375 29.625 80.8157 29.625 83.75C29.625 86.6843 32.0032 89.0625 34.9375 89.0625C37.8718 89.0625 40.25 86.6843 40.25 83.75C40.25 80.8157 37.8718 78.4375 34.9375 78.4375Z" fill="#6C63FF"/>
</svg>
