<svg width="120" height="120" viewBox="0 0 120 120" fill="none" xmlns="http://www.w3.org/2000/svg">
<path d="M16.875 93.75V37.5H103.125V93.75C103.125 98.9269 98.9269 103.125 93.75 103.125H26.25C21.0731 103.125 16.875 98.9269 16.875 93.75Z" fill="#242059"/>
<path d="M103.125 27.75V43.125H16.875V27.75C16.875 22.7756 20.9362 18.75 25.9537 18.75H94.0462C99.0638 18.75 103.125 22.7756 103.125 27.75Z" fill="#6C63FF"/>
<path d="M46.2281 18.75H34.395C31.74 20.6156 30 23.6962 30 27.1875C30 32.88 34.62 37.5 40.3125 37.5C46.005 37.5 50.625 32.88 50.625 27.1875C50.625 23.6962 48.885 20.6156 46.2281 18.75Z" fill="#372FAF" fill-opacity="0.92"/>
<path d="M40.3125 31.875C37.7344 31.875 35.625 29.7656 35.625 27.1875V15.9375C35.625 13.3594 37.7344 11.25 40.3125 11.25C42.8906 11.25 45 13.3594 45 15.9375V27.1875C45 29.7656 42.8906 31.875 40.3125 31.875Z" fill="url(#paint0_linear)"/>
<path d="M85.6031 18.75H73.77C71.115 20.6156 69.375 23.6962 69.375 27.1875C69.375 32.88 73.995 37.5 79.6875 37.5C85.38 37.5 90 32.88 90 27.1875C90 23.6962 88.26 20.6156 85.6031 18.75Z" fill="#372FAF" fill-opacity="0.92"/>
<path d="M79.6875 31.875C77.1094 31.875 75 29.7656 75 27.1875V15.9375C75 13.3594 77.1094 11.25 79.6875 11.25C82.2656 11.25 84.375 13.3594 84.375 15.9375V27.1875C84.375 29.7656 82.2656 31.875 79.6875 31.875Z" fill="url(#paint1_linear)"/>
<path d="M32.2383 61.1094H46.3789C46.444 61.1094 46.7044 61.3698 47.1602 61.8906C47.1602 61.9557 46.3789 62.737 44.8164 64.2344H33.8008C33.7357 64.2344 32.9544 63.4531 31.457 61.8906C31.457 61.8255 31.7174 61.5651 32.2383 61.1094ZM39.0352 65.6406C39.1003 65.6406 39.8815 66.4219 41.3789 67.9844V74.3125C41.3789 74.3776 40.5977 75.1589 39.0352 76.6562C38.9701 76.6562 38.7096 76.3958 38.2539 75.875V66.4219C38.2539 66.3568 38.5143 66.0964 39.0352 65.6406ZM40.5977 78.0625C40.6628 78.0625 40.9232 78.3229 41.3789 78.8438V88.2188C41.3789 88.2839 41.1185 88.5443 40.5977 89C40.5326 89 39.7513 88.2188 38.2539 86.6562V80.4062C38.2539 80.3411 39.0352 79.5599 40.5977 78.0625ZM51.9336 61.1094C51.9987 61.1094 52.7799 61.8906 54.2773 63.4531V72.3594C54.2773 72.4245 53.4961 73.2057 51.9336 74.7031C51.8685 74.7031 51.6081 74.4427 51.1523 73.9219V61.8906C51.1523 61.8255 51.4128 61.5651 51.9336 61.1094ZM66.0742 61.1094C66.1393 61.1094 66.3997 61.3698 66.8555 61.8906V73.9219C66.8555 73.987 66.5951 74.2474 66.0742 74.7031C66.0091 74.7031 65.2279 73.9219 63.7305 72.3594V63.4531C63.7305 63.388 64.5117 62.6068 66.0742 61.1094ZM51.9336 75.4844C51.9987 75.4844 52.7799 76.2656 54.2773 77.8281V85.7969C54.2773 85.862 53.4961 86.6432 51.9336 88.1406C51.8685 88.1406 51.6081 87.8802 51.1523 87.3594V76.2656C51.1523 76.2005 51.4128 75.9401 51.9336 75.4844ZM66.0742 75.5625C66.1393 75.5625 66.3997 75.8229 66.8555 76.3438V87.4375C66.8555 87.5026 66.5951 87.763 66.0742 88.2188C66.0091 88.2188 65.2279 87.4375 63.7305 85.875V77.9062C63.7305 77.8411 64.5117 77.0599 66.0742 75.5625ZM55.0586 85.875H63.0273C63.0924 85.875 63.8737 86.6562 65.3711 88.2188C65.3711 88.2839 65.1107 88.5443 64.5898 89H53.4961C53.431 89 53.1706 88.7396 52.7148 88.2188C52.7148 88.1536 53.4961 87.3724 55.0586 85.875ZM73.1914 61.1094H84.2852C84.3503 61.1094 84.6107 61.3698 85.0664 61.8906C85.0664 61.9557 84.2852 62.737 82.7227 64.2344H74.7539C74.6888 64.2344 73.9076 63.4531 72.4102 61.8906C72.4102 61.8255 72.6706 61.5651 73.1914 61.1094ZM71.6289 61.9688C71.694 61.9688 72.4753 62.75 73.9727 64.3125V72.2812C73.9727 72.3464 73.1914 73.1276 71.6289 74.625C71.5638 74.625 71.3034 74.3646 70.8477 73.8438V62.75C70.8477 62.6849 71.1081 62.4245 71.6289 61.9688ZM73.9727 73.375H83.1914C83.2565 73.375 83.7773 73.8958 84.7539 74.9375V75.0156C84.7539 75.0807 84.2331 75.6016 83.1914 76.5781H73.9727C73.9076 76.5781 73.3867 76.0573 72.4102 75.0156V74.9375C72.4102 74.8724 72.931 74.3516 73.9727 73.375ZM71.6289 75.4062C71.694 75.4062 72.4753 76.1875 73.9727 77.75V85.7188C73.9727 85.7839 73.1914 86.5651 71.6289 88.0625C71.5638 88.0625 71.3034 87.8021 70.8477 87.2812V76.1875C70.8477 76.1224 71.1081 75.862 71.6289 75.4062ZM74.6758 85.875H82.6445C82.7096 85.875 83.4909 86.6562 84.9883 88.2188C84.9883 88.2839 84.7279 88.5443 84.207 89H73.1133C73.0482 89 72.7878 88.7396 72.332 88.2188C72.332 88.1536 73.1133 87.3724 74.6758 85.875Z" fill="white"/>
<defs>
<linearGradient id="paint0_linear" x1="40.3125" y1="11.25" x2="40.3125" y2="31.875" gradientUnits="userSpaceOnUse">
<stop stop-color="#A4A4A4"/>
<stop offset="0.58" stop-color="#828282"/>
<stop offset="0.63" stop-color="#7F7F7F"/>
<stop offset="1" stop-color="#6F6F6F"/>
</linearGradient>
<linearGradient id="paint1_linear" x1="79.6875" y1="11.25" x2="79.6875" y2="31.875" gradientUnits="userSpaceOnUse">
<stop stop-color="#A4A4A4"/>
<stop offset="0.58" stop-color="#828282"/>
<stop offset="0.63" stop-color="#7F7F7F"/>
<stop offset="1" stop-color="#6F6F6F"/>
</linearGradient>
</defs>
</svg>
