<svg width="120" height="120" viewBox="0 0 120 120" fill="none" xmlns="http://www.w3.org/2000/svg">
<path d="M16.875 93.75V37.5H103.125V93.75C103.125 98.9269 98.9269 103.125 93.75 103.125H26.25C21.0731 103.125 16.875 98.9269 16.875 93.75Z" fill="#242059"/>
<path d="M103.125 27.75V43.125H16.875V27.75C16.875 22.7756 20.9362 18.75 25.9537 18.75H94.0462C99.0638 18.75 103.125 22.7756 103.125 27.75Z" fill="#6C63FF"/>
<path d="M46.2281 18.75H34.395C31.74 20.6156 30 23.6962 30 27.1875C30 32.88 34.62 37.5 40.3125 37.5C46.005 37.5 50.625 32.88 50.625 27.1875C50.625 23.6962 48.885 20.6156 46.2281 18.75Z" fill="#372FAF" fill-opacity="0.92"/>
<path d="M40.3125 31.875C37.7344 31.875 35.625 29.7656 35.625 27.1875V15.9375C35.625 13.3594 37.7344 11.25 40.3125 11.25C42.8906 11.25 45 13.3594 45 15.9375V27.1875C45 29.7656 42.8906 31.875 40.3125 31.875Z" fill="url(#paint0_linear)"/>
<path d="M85.6031 18.75H73.77C71.115 20.6156 69.375 23.6962 69.375 27.1875C69.375 32.88 73.995 37.5 79.6875 37.5C85.38 37.5 90 32.88 90 27.1875C90 23.6962 88.26 20.6156 85.6031 18.75Z" fill="#372FAF" fill-opacity="0.92"/>
<path d="M79.6875 31.875C77.1094 31.875 75 29.7656 75 27.1875V15.9375C75 13.3594 77.1094 11.25 79.6875 11.25C82.2656 11.25 84.375 13.3594 84.375 15.9375V27.1875C84.375 29.7656 82.2656 31.875 79.6875 31.875Z" fill="url(#paint1_linear)"/>
<path d="M26.0469 60.7969C26.112 60.7969 26.8932 61.5781 28.3906 63.1406V74.8594C28.3906 74.9245 27.6094 75.7057 26.0469 77.2031C25.9818 77.2031 25.7214 76.9427 25.2656 76.4219V61.5781C25.2656 61.513 25.526 61.2526 26.0469 60.7969ZM40.1094 60.7969C40.1745 60.7969 40.4349 61.0573 40.8906 61.5781V74.8594C40.8906 74.9245 40.1094 75.7057 38.5469 77.2031C38.4818 77.2031 38.2214 76.9427 37.7656 76.4219V63.1406C37.7656 63.0755 38.5469 62.2943 40.1094 60.7969ZM52.6094 60.7969C52.6745 60.7969 52.9349 61.0573 53.3906 61.5781V76.4219C53.3906 76.487 53.1302 76.7474 52.6094 77.2031C52.5443 77.2031 51.763 76.4219 50.2656 74.8594V63.1406C50.2656 63.0755 51.0469 62.2943 52.6094 60.7969ZM25.5781 78.1406C27.5833 78.6094 28.6771 78.8958 28.8594 79C29.0547 79.4036 30.4089 81.5911 32.9219 85.5625C32.5182 87.75 32.2578 88.8438 32.1406 88.8438H32.0625C31.3724 88.8438 30.9297 88.5573 30.7344 87.9844C30.3307 87.4245 28.5078 84.5078 25.2656 79.2344C25.3698 78.6875 25.474 78.3229 25.5781 78.1406ZM40.6562 78.375L40.7344 78.5312V78.6875C39.1849 82.0078 37.4141 85.1849 35.4219 88.2188C35.2266 88.7396 34.7578 89 34.0156 89C33.8854 88.7656 33.625 87.6979 33.2344 85.7969C35.9427 81.3698 37.349 79.1302 37.4531 79.0781C39.237 78.6094 40.3047 78.375 40.6562 78.375ZM53.1562 78.375C53.3125 78.8958 53.3906 79.2865 53.3906 79.5469L47.4531 88.8438C46.9323 88.9479 46.6198 89 46.5156 89C46.3854 88.7656 46.125 87.6979 45.7344 85.7969C48.4427 81.3698 49.849 79.1302 49.9531 79.0781C51.737 78.6094 52.8047 78.375 53.1562 78.375ZM41.5938 79.5469C41.724 79.6641 43 81.6693 45.4219 85.5625C45.0182 87.75 44.7578 88.8438 44.6406 88.8438H44.5625C43.8724 88.8438 43.4297 88.5573 43.2344 87.9844L39.875 82.6719C40.9167 80.6406 41.4896 79.599 41.5938 79.5469ZM59.6875 61.1094H70.7812C70.8464 61.1094 71.1068 61.3698 71.5625 61.8906C71.5625 61.9557 70.7812 62.737 69.2188 64.2344H61.25C61.1849 64.2344 60.4036 63.4531 58.9062 61.8906C58.9062 61.8255 59.1667 61.5651 59.6875 61.1094ZM58.125 61.9688C58.1901 61.9688 58.9714 62.75 60.4688 64.3125V72.2812C60.4688 72.3464 59.6875 73.1276 58.125 74.625C58.0599 74.625 57.7995 74.3646 57.3438 73.8438V62.75C57.3438 62.6849 57.6042 62.4245 58.125 61.9688ZM60.4688 73.375H69.6875C69.7526 73.375 70.2734 73.8958 71.25 74.9375V75.0156C71.25 75.0807 70.7292 75.6016 69.6875 76.5781H60.4688C60.4036 76.5781 59.8828 76.0573 58.9062 75.0156V74.9375C58.9062 74.8724 59.4271 74.3516 60.4688 73.375ZM58.125 75.4062C58.1901 75.4062 58.9714 76.1875 60.4688 77.75V85.7188C60.4688 85.7839 59.6875 86.5651 58.125 88.0625C58.0599 88.0625 57.7995 87.8021 57.3438 87.2812V76.1875C57.3438 76.1224 57.6042 75.862 58.125 75.4062ZM61.1719 85.875H69.1406C69.2057 85.875 69.987 86.6562 71.4844 88.2188C71.4844 88.2839 71.224 88.5443 70.7031 89H59.6094C59.5443 89 59.2839 88.7396 58.8281 88.2188C58.8281 88.1536 59.6094 87.3724 61.1719 85.875ZM77.8203 61.1094H90.4766C90.5417 61.1094 90.8021 61.3698 91.2578 61.8906C91.2578 61.9557 90.4766 62.737 88.9141 64.2344H80.9453C79.0573 62.4635 78.0156 61.4479 77.8203 61.1875V61.1094ZM77.0391 61.2656H77.1172C77.1823 61.2656 78.1979 62.2812 80.1641 64.3125V72.2812C80.1641 72.3464 79.3828 73.1276 77.8203 74.625C77.7552 74.625 77.4948 74.3646 77.0391 73.8438V61.2656ZM91.9609 61.8906C92.026 61.8906 92.2865 62.151 92.7422 62.6719V73.7656C92.7422 73.8307 92.4818 74.0911 91.9609 74.5469C91.8958 74.5469 91.1146 73.7656 89.6172 72.2031V64.2344C89.6172 64.1693 90.3984 63.388 91.9609 61.8906ZM77.8203 75.4062C77.8854 75.4062 78.6667 76.1875 80.1641 77.75V85.7188C78.3932 87.6068 77.3776 88.6484 77.1172 88.8438H77.0391V76.1875C77.0391 76.1224 77.2995 75.862 77.8203 75.4062ZM91.9609 75.4844C92.026 75.4844 92.2865 75.7448 92.7422 76.2656V87.3594C92.7422 87.4245 92.4818 87.6849 91.9609 88.1406C91.8958 88.1406 91.1146 87.3594 89.6172 85.7969V77.8281C89.6172 77.763 90.3984 76.9818 91.9609 75.4844ZM80.8672 85.875H88.8359C88.901 85.875 89.6823 86.6562 91.1797 88.2188C91.1797 88.2839 90.9193 88.5443 90.3984 89H77.8984V88.9219C79.6042 87.099 80.5938 86.0833 80.8672 85.875Z" fill="white"/>
<defs>
<linearGradient id="paint0_linear" x1="40.3125" y1="11.25" x2="40.3125" y2="31.875" gradientUnits="userSpaceOnUse">
<stop stop-color="#A4A4A4"/>
<stop offset="0.58" stop-color="#828282"/>
<stop offset="0.63" stop-color="#7F7F7F"/>
<stop offset="1" stop-color="#6F6F6F"/>
</linearGradient>
<linearGradient id="paint1_linear" x1="79.6875" y1="11.25" x2="79.6875" y2="31.875" gradientUnits="userSpaceOnUse">
<stop stop-color="#A4A4A4"/>
<stop offset="0.58" stop-color="#828282"/>
<stop offset="0.63" stop-color="#7F7F7F"/>
<stop offset="1" stop-color="#6F6F6F"/>
</linearGradient>
</defs>
</svg>
