<svg width="1" height="1" viewBox="0 0 55 55" fill="none" xmlns="http://www.w3.org/2000/svg">
<circle cx="27.5" cy="27.5" r="26.5" stroke="#B23121" stroke-width="2"/>
<path d="M45.3125 26.9219C45.3125 25.7969 45.1719 24.9531 45.0312 24.0391H28.4375V30.0156H38.2812C37.9297 32.6172 35.3281 37.5391 28.4375 37.5391C22.4609 37.5391 17.6094 32.6172 17.6094 26.5C17.6094 16.7266 29.1406 12.2266 35.3281 18.2031L40.1094 13.6328C37.0859 10.8203 33.0781 9.0625 28.4375 9.0625C18.7344 9.0625 11 16.8672 11 26.5C11 36.2031 18.7344 43.9375 28.4375 43.9375C38.4922 43.9375 45.3125 36.9062 45.3125 26.9219Z" fill="url(#paint0_linear)"/>
<defs>
<linearGradient id="paint0_linear" x1="22.4806" y1="6" x2="22.4806" y2="33.767" gradientUnits="userSpaceOnUse">
<stop stop-color="#B23121"/>
<stop offset="1" stop-color="#B23121" stop-opacity="0.75"/>
</linearGradient>
</defs>
</svg>
