<svg width="18" height="1" viewBox="0 0 35 35" fill="none" xmlns="http://www.w3.org/2000/svg">
<path d="M17.5 24.7917C19.1041 24.7917 20.4166 23.4792 20.4166 21.875C20.4166 20.2708 19.1041 18.9583 17.5 18.9583C15.8958 18.9583 14.5833 20.2708 14.5833 21.875C14.5833 23.4792 15.8958 24.7917 17.5 24.7917ZM26.25 11.6667H24.7916V8.75C24.7916 4.725 21.525 1.45834 17.5 1.45834C13.475 1.45834 10.2083 4.725 10.2083 8.75V11.6667H8.74998C7.14581 11.6667 5.83331 12.9792 5.83331 14.5833V29.1667C5.83331 30.7708 7.14581 32.0833 8.74998 32.0833H26.25C27.8541 32.0833 29.1666 30.7708 29.1666 29.1667V14.5833C29.1666 12.9792 27.8541 11.6667 26.25 11.6667ZM12.9791 8.75C12.9791 6.25625 15.0062 4.22917 17.5 4.22917C19.9937 4.22917 22.0208 6.25625 22.0208 8.75V11.6667H12.9791V8.75ZM26.25 29.1667H8.74998V14.5833H26.25V29.1667Z" fill="#6C63FF"/>
</svg>
