<svg width="55" height="55" viewBox="0 0 55 55" fill="none" xmlns="http://www.w3.org/2000/svg">
<circle cx="27.5" cy="27.5" r="26.5" stroke="#00ACEE" stroke-width="2"/>
<path d="M43.2734 20.1875C44.6797 19.1328 45.9453 17.8672 46.9297 16.3906C45.6641 16.9531 44.1875 17.375 42.7109 17.5156C44.2578 16.6016 45.3828 15.1953 45.9453 13.4375C44.5391 14.2812 42.9219 14.9141 41.3047 15.2656C39.8984 13.7891 38 12.9453 35.8906 12.9453C31.8125 12.9453 28.5078 16.25 28.5078 20.3281C28.5078 20.8906 28.5781 21.4531 28.7188 22.0156C22.6016 21.6641 17.1172 18.7109 13.4609 14.2812C12.8281 15.3359 12.4766 16.6016 12.4766 18.0078C12.4766 20.5391 13.7422 22.7891 15.7812 24.125C14.5859 24.0547 13.3906 23.7734 12.4062 23.2109V23.2812C12.4062 26.8672 14.9375 29.8203 18.3125 30.5234C17.75 30.6641 17.0469 30.8047 16.4141 30.8047C15.9219 30.8047 15.5 30.7344 15.0078 30.6641C15.9219 33.6172 18.6641 35.7266 21.8984 35.7969C19.3672 37.7656 16.2031 38.9609 12.7578 38.9609C12.125 38.9609 11.5625 38.8906 11 38.8203C14.2344 40.9297 18.1016 42.125 22.3203 42.125C35.8906 42.125 43.2734 30.9453 43.2734 21.1719C43.2734 20.8203 43.2734 20.5391 43.2734 20.1875Z" fill="url(#paint0_linear)"/>
<defs>
<linearGradient id="paint0_linear" x1="29" y1="7" x2="29" y2="48" gradientUnits="userSpaceOnUse">
<stop stop-color="#00ACEE"/>
<stop offset="1" stop-color="#00ACEE" stop-opacity="0.75"/>
</linearGradient>
</defs>
</svg>
