<svg width="10" height="8" viewBox="0 0 150 150" fill="none" xmlns="http://www.w3.org/2000/svg">
<path d="M144.375 145.312C135.938 144.938 126.188 142.312 116.625 138L116.25 137.812L115.875 138C109.5 140.438 102.562 141.75 95.625 141.75C68.25 141.75 45.9375 122.812 45.9375 99.5625C45.9375 76.3125 68.25 57.1875 95.625 57.1875C123 57.1875 145.312 76.125 145.312 99.375C145.312 109.125 141.375 118.688 134.062 126.188L133.688 126.75L134.062 127.312C137.25 134.25 140.812 140.25 144.375 145.312Z" fill="#372FAF"/>
<path d="M5.62501 92.8125C9.18751 87.9375 12.75 81.75 16.125 74.8125L16.5 74.25L16.125 73.6875C8.81251 66.1875 4.87501 56.625 4.87501 46.875C4.68751 23.625 27 4.6875 54.375 4.6875C81.75 4.6875 104.063 23.625 104.063 46.875C104.063 70.125 81.75 89.0625 54.375 89.0625C47.25 89.0625 40.5 87.75 34.125 85.3125H33.75L33.375 85.5C23.8125 89.8125 14.0625 92.4375 5.62501 92.8125Z" fill="#6159E5"/>
</svg>
