<svg width="150" height="150" viewBox="0 0 150 150" fill="none" xmlns="http://www.w3.org/2000/svg">
<path d="M49.5 112C42.625 112 37.0625 117.625 37.0625 124.5C37.0625 131.375 42.625 137 49.5 137C56.375 137 62 131.375 62 124.5C62 117.625 56.375 112 49.5 112ZM12 12V24.5H24.5L47 71.9375L38.5625 87.25C37.5625 89 37 91.0625 37 93.25C37 100.125 42.625 105.75 49.5 105.75H124.5V93.25H52.125C51.25 93.25 50.5625 92.5625 50.5625 91.6875L50.75 90.9375L56.375 80.75H102.938C107.625 80.75 111.75 78.1875 113.875 74.3125L136.25 33.75C136.75 32.875 137 31.8125 137 30.75C137 27.3125 134.188 24.5 130.75 24.5H38.3125L32.4375 12H12ZM112 112C105.125 112 99.5625 117.625 99.5625 124.5C99.5625 131.375 105.125 137 112 137C118.875 137 124.5 131.375 124.5 124.5C124.5 117.625 118.875 112 112 112Z" fill="#736BFF"/>
</svg>
