<svg width="10" height="8" viewBox="0 0 150 150" fill="none" xmlns="http://www.w3.org/2000/svg">
<path d="M117.188 28.125H32.8125C27.6352 28.125 23.4375 32.3227 23.4375 37.5V121.875C23.4375 127.052 27.6352 131.25 32.8125 131.25H117.188C122.365 131.25 126.562 127.052 126.562 121.875V37.5C126.562 32.3227 122.365 28.125 117.188 28.125Z" fill="url(#paint0_linear)"/>
<path d="M99.6094 77.3438H106.641C108.581 77.3438 110.156 75.7688 110.156 73.8281V66.7969C110.156 64.8562 108.581 63.2812 106.641 63.2812H99.6094C97.6688 63.2812 96.0938 64.8562 96.0938 66.7969V73.8281C96.0938 75.7688 97.6688 77.3438 99.6094 77.3438ZM80.8594 114.844H87.8906C89.8312 114.844 91.4062 113.269 91.4062 111.328V104.297C91.4062 102.356 89.8312 100.781 87.8906 100.781H80.8594C78.9188 100.781 77.3438 102.356 77.3438 104.297V111.328C77.3438 113.269 78.9188 114.844 80.8594 114.844ZM43.3594 114.844H50.3906C52.3313 114.844 53.9062 113.269 53.9062 111.328V104.297C53.9062 102.356 52.3313 100.781 50.3906 100.781H43.3594C41.4187 100.781 39.8438 102.356 39.8438 104.297V111.328C39.8438 113.269 41.4187 114.844 43.3594 114.844ZM62.1094 114.844H69.1406C71.0812 114.844 72.6562 113.269 72.6562 111.328V104.297C72.6562 102.356 71.0812 100.781 69.1406 100.781H62.1094C60.1688 100.781 58.5938 102.356 58.5938 104.297V111.328C58.5938 113.269 60.1688 114.844 62.1094 114.844ZM80.8594 77.3438H87.8906C89.8312 77.3438 91.4062 75.7688 91.4062 73.8281V66.7969C91.4062 64.8562 89.8312 63.2812 87.8906 63.2812H80.8594C78.9188 63.2812 77.3438 64.8562 77.3438 66.7969V73.8281C77.3438 75.7688 78.9188 77.3438 80.8594 77.3438ZM62.1094 96.0938H69.1406C71.0812 96.0938 72.6562 94.5187 72.6562 92.5781V85.5469C72.6562 83.6063 71.0812 82.0312 69.1406 82.0312H62.1094C60.1688 82.0312 58.5938 83.6063 58.5938 85.5469V92.5781C58.5938 94.5187 60.1688 96.0938 62.1094 96.0938ZM43.3594 96.0938H50.3906C52.3313 96.0938 53.9062 94.5187 53.9062 92.5781V85.5469C53.9062 83.6063 52.3313 82.0312 50.3906 82.0312H43.3594C41.4187 82.0312 39.8438 83.6063 39.8438 85.5469V92.5781C39.8438 94.5187 41.4187 96.0938 43.3594 96.0938ZM99.6094 96.0938H106.641C108.581 96.0938 110.156 94.5187 110.156 92.5781V85.5469C110.156 83.6063 108.581 82.0312 106.641 82.0312H99.6094C97.6688 82.0312 96.0938 83.6063 96.0938 85.5469V92.5781C96.0938 94.5187 97.6688 96.0938 99.6094 96.0938ZM62.1094 77.3438H69.1406C71.0812 77.3438 72.6562 75.7688 72.6562 73.8281V66.7969C72.6562 64.8562 71.0812 63.2812 69.1406 63.2812H62.1094C60.1688 63.2812 58.5938 64.8562 58.5938 66.7969V73.8281C58.5938 75.7688 60.1688 77.3438 62.1094 77.3438ZM80.8594 96.0938H87.8906C89.8312 96.0938 91.4062 94.5187 91.4062 92.5781V85.5469C91.4062 83.6063 89.8312 82.0312 87.8906 82.0312H80.8594C78.9188 82.0312 77.3438 83.6063 77.3438 85.5469V92.5781C77.3438 94.5187 78.9188 96.0938 80.8594 96.0938ZM43.3594 77.3438H50.3906C52.3313 77.3438 53.9062 75.7688 53.9062 73.8281V66.7969C53.9062 64.8562 52.3313 63.2812 50.3906 63.2812H43.3594C41.4187 63.2812 39.8438 64.8562 39.8438 66.7969V73.8281C39.8438 75.7688 41.4187 77.3438 43.3594 77.3438Z" fill="url(#paint1_linear)"/>
<path d="M50.3906 58.5938H43.3594C41.4187 58.5938 39.8438 57.0188 39.8438 55.0781V48.0469C39.8438 46.1062 41.4187 44.5312 43.3594 44.5312H50.3906C52.3313 44.5312 53.9062 46.1062 53.9062 48.0469V55.0781C53.9062 57.0188 52.3313 58.5938 50.3906 58.5938ZM69.1406 44.5312H62.1094C60.1688 44.5312 58.5938 46.1062 58.5938 48.0469V55.0781C58.5938 57.0188 60.1688 58.5938 62.1094 58.5938H69.1406C71.0812 58.5938 72.6562 57.0188 72.6562 55.0781V48.0469C72.6562 46.1062 71.0812 44.5312 69.1406 44.5312ZM87.8906 44.5312H80.8594C78.9188 44.5312 77.3438 46.1062 77.3438 48.0469V55.0781C77.3438 57.0188 78.9188 58.5938 80.8594 58.5938H87.8906C89.8312 58.5938 91.4062 57.0188 91.4062 55.0781V48.0469C91.4062 46.1062 89.8312 44.5312 87.8906 44.5312ZM106.641 44.5312H99.6094C97.6688 44.5312 96.0938 46.1062 96.0938 48.0469V55.0781C96.0938 57.0188 97.6688 58.5938 99.6094 58.5938H106.641C108.581 58.5938 110.156 57.0188 110.156 55.0781V48.0469C110.156 46.1062 108.581 44.5312 106.641 44.5312Z" fill="#DCDCDC"/>
<defs>
<linearGradient id="paint0_linear" x1="75" y1="135.591" x2="75" y2="32.4656" gradientUnits="userSpaceOnUse">
<stop stop-color="#18540f" stop-opacity="0.8"/>
<stop offset="0.380208" stop-color="#18540f"/>
<stop offset="0.645833" stop-color="#18540f" stop-opacity="0.85"/>
<stop offset="1" stop-color="#18540f"/>
</linearGradient>
<linearGradient id="paint1_linear" x1="75" y1="114.844" x2="75" y2="63.2812" gradientUnits="userSpaceOnUse">
<stop stop-color="#FFF5D5"/>
<stop offset="1" stop-color="white"/>
</linearGradient>
</defs>
</svg>
