<svg width="10" height="8" viewBox="0 0 150 150" fill="none" xmlns="http://www.w3.org/2000/svg">
<path d="M103.125 75C111.75 75 118.687 68 118.687 59.375C118.687 50.75 111.75 43.75 103.125 43.75C94.5 43.75 87.5 50.75 87.5 59.375C87.5 68 94.5 75 103.125 75ZM56.25 68.75C66.625 68.75 74.9375 60.375 74.9375 50C74.9375 39.625 66.625 31.25 56.25 31.25C45.875 31.25 37.5 39.625 37.5 50C37.5 60.375 45.875 68.75 56.25 68.75ZM103.125 87.5C91.6875 87.5 68.75 93.25 68.75 104.688V118.75H137.5V104.688C137.5 93.25 114.563 87.5 103.125 87.5ZM56.25 81.25C41.6875 81.25 12.5 88.5625 12.5 103.125V118.75H56.25V104.688C56.25 99.375 58.3125 90.0625 71.0625 83C65.625 81.875 60.375 81.25 56.25 81.25Z" fill="url(#paint0_linear)"/>
<defs>
<linearGradient id="paint0_linear" x1="75" y1="31.25" x2="75" y2="118.75" gradientUnits="userSpaceOnUse">
<stop stop-color="#6C63FF"/>
<stop offset="0.359375" stop-color="#6C63FF" stop-opacity="0.90625"/>
<stop offset="0.739583" stop-color="#6C63FF" stop-opacity="0.95"/>
<stop offset="1" stop-color="#6C63FF" stop-opacity="0.85"/>
</linearGradient>
</defs>
</svg>
